<?xml version="1.0" encoding="UTF-8" standalone="no"?>
<svg
   xmlns:dc="http://purl.org/dc/elements/1.1/"
   xmlns:cc="http://creativecommons.org/ns#"
   xmlns:rdf="http://www.w3.org/1999/02/22-rdf-syntax-ns#"
   xmlns:svg="http://www.w3.org/2000/svg"
   xmlns="http://www.w3.org/2000/svg"
   xmlns:sodipodi="http://sodipodi.sourceforge.net/DTD/sodipodi-0.dtd"
   xmlns:inkscape="http://www.inkscape.org/namespaces/inkscape"
   width="16"
   height="16"
   version="1.1"
   id="svg4"
   sodipodi:docname="claro.svg"
   inkscape:export-filename="/home/joan/Plantillas/practica/Consejo Comunal/Nav_bar/Iconos_nav-bar/login.svg.png"
   inkscape:export-xdpi="96"
   inkscape:export-ydpi="96"
   inkscape:version="0.92.3 (2405546, 2018-03-11)">
  <metadata
     id="metadata10">
    <rdf:RDF>
      <cc:Work
         rdf:about="">
        <dc:format>image/svg+xml</dc:format>
        <dc:type
           rdf:resource="http://purl.org/dc/dcmitype/StillImage" />
      </cc:Work>
    </rdf:RDF>
  </metadata>
  <defs
     id="defs8" />
  <sodipodi:namedview
     pagecolor="#ffffff"
     bordercolor="#666666"
     borderopacity="1"
     objecttolerance="10"
     gridtolerance="10"
     guidetolerance="10"
     inkscape:pageopacity="0"
     inkscape:pageshadow="2"
     inkscape:window-width="1024"
     inkscape:window-height="574"
     id="namedview6"
     showgrid="false"
     inkscape:snap-bbox="true"
     inkscape:bbox-paths="true"
     inkscape:zoom="32"
     inkscape:cx="12.686833"
     inkscape:cy="6.9249935"
     inkscape:window-x="0"
     inkscape:window-y="0"
     inkscape:window-maximized="1"
     inkscape:current-layer="svg4" />
  <path
     class="ColorScheme-Text"
     d="m8 4e-6a8 8 0 0 0-8 8 8 8 0 0 0 6.6621 7.8848 8 8 0 0 0 0.79297 0.0957 8 8 0 0 0 0.54492 0.01953 8 8 0 0 0 1.5898-0.16016 8 8 0 0 0 0.77344-0.19727 8 8 0 0 0 2.8574-1.584 8 8 0 0 0 0.33789-0.30664 6 6 0 0 0-0.0039-0.0078 8 8 0 0 0 2.4453-5.7441 8 8 0 0 0-8-8zm0 1a7 7 0 0 1 7 7 7 7 0 0 1-1.9277 4.8105 6 6 0 0 0-5.0723-2.8105 6 6 0 0 0-5.0762 2.8145 7 7 0 0 1-1.9238-4.8145 7 7 0 0 1 7-7zm0 3a2 2 0 0 0-2 2 2 2 0 0 0 2 2 2 2 0 0 0 2-2 2 2 0 0 0-2-2z"
     id="path2"
     style="fill:#000000"
     fill="currentColor"
     color="#363636" />
  <path
     style="opacity:0.91000001;fill:#ffffff;fill-opacity:1;stroke:#05030d;stroke-width:0;stroke-miterlimit:4;stroke-dasharray:none;stroke-dashoffset:0;stroke-opacity:1;paint-order:markers fill stroke"
     d="M 2.6189824,12.428153 C 1.618182,11.187136 1.1059345,9.8377226 1.0456009,8.2833976 1.0152624,7.5018117 1.0679045,6.9769427 1.2482546,6.2628351 1.5560166,5.0442325 2.1430661,4.0187914 3.0647929,3.0897582 5.0664101,1.0722746 8.0056405,0.47890035 10.658815,1.5566709 c 2.09521,0.8511143 3.699088,2.7790814 4.163999,5.0053999 0.436234,2.0889927 -0.108087,4.2551932 -1.487158,5.9183512 l -0.254051,0.306386 -0.06971,-0.105958 C 12.140605,11.356458 10.72017,10.40802 9.1286641,10.087981 8.5850408,9.9786636 7.3813586,9.979231 6.8654889,10.089081 5.3580968,10.409972 4.0855216,11.208164 3.2066592,12.383992 3.04769,12.596677 2.9125761,12.770691 2.9064058,12.770691 c -0.00617,0 -0.1355121,-0.154127 -0.2874264,-0.342505 z M 8.877185,7.8054911 C 9.29654,7.6063402 9.6147208,7.2850746 9.8193434,6.8541982 10.195706,6.0616853 9.9897698,5.0533754 9.3364562,4.4898787 8.0763565,3.4030157 6.1327091,4.1862901 5.9943429,5.8367237 5.8649579,7.3800276 7.4679345,8.4747416 8.877185,7.8054911 Z"
     id="path866"
     inkscape:connector-curvature="0" />
  <path
     style="opacity:0.91000001;fill:#ffffff;fill-opacity:1;stroke:#05030d;stroke-width:0;stroke-miterlimit:4;stroke-dasharray:none;stroke-dashoffset:0;stroke-opacity:1;paint-order:markers fill stroke"
     d="M 7.3639977,15.952544 C 4.1369674,15.674067 1.4114794,13.513811 0.41228357,10.442529 -0.88090963,6.4675712 1.1662469,2.1307845 5.0638143,0.58852108 6.1519102,0.15796254 6.9713745,0.02139727 8.2576083,0.05626915 c 0.9662614,0.02619692 1.4480093,0.10658121 2.2765857,0.37987051 0.580072,0.19132493 1.574512,0.69634024 2.074779,1.05365294 0.472644,0.3375835 1.205293,1.0227026 1.563807,1.4623565 1.964894,2.409592 2.353131,5.7234143 0.997565,8.5147809 -0.420897,0.866707 -0.978229,1.62479 -1.707522,2.322572 -1.605711,1.536329 -3.9062507,2.352251 -6.0988253,2.163042 z M 3.1752783,12.494779 c 0.8648239,-1.2377 2.3487666,-2.139721 3.9548531,-2.403975 0.546682,-0.08995 1.5827759,-0.05756 2.1218458,0.06633 1.3836018,0.317981 2.5989878,1.080558 3.4266138,2.149979 0.14498,0.187336 0.295378,0.38162 0.334217,0.431743 0.06974,0.09 0.07275,0.08879 0.243068,-0.09824 0.468197,-0.514126 1.005578,-1.39888 1.289991,-2.123866 0.16788,-0.427933 0.345245,-1.1172097 0.407402,-1.5832448 C 15.016109,8.462341 15.015009,7.4471867 14.951169,7.02287 14.719686,5.4834823 14.023566,4.0983437 12.942435,3.025843 12.388451,2.4762815 11.817428,2.0667815 11.13023,1.7262488 9.1319171,0.73601007 6.8344083,0.73610783 4.8637358,1.7265154 2.9243268,2.7012109 1.5692208,4.4679453 1.1214431,6.6055711 0.99975332,7.1865004 0.95640644,8.2329968 1.0297636,8.8189324 c 0.1517798,1.2123316 0.6186455,2.3924126 1.3166963,3.3281696 0.2709395,0.363202 0.5370375,0.668763 0.5798445,0.665836 0.015402,-0.0011 0.12744,-0.144225 0.2489739,-0.318159 z"
     id="path868"
     inkscape:connector-curvature="0" />
  <path
     style="opacity:0.91000001;fill:#000000;fill-opacity:1;stroke:#05030d;stroke-width:0;stroke-miterlimit:4;stroke-dasharray:none;stroke-dashoffset:0;stroke-opacity:1;paint-order:markers fill stroke"
     d="M 7.6830841,7.9472731 C 7.0743153,7.8619171 6.5016979,7.4247896 6.2190783,6.829673 5.51306,5.3429991 6.8876039,3.6739636 8.4770341,4.0879576 9.1522042,4.2638171 9.6473037,4.7282019 9.8735115,5.3978014 9.9507627,5.6264732 9.9649172,5.7540798 9.9511064,6.0973381 9.9366865,6.4557329 9.9137088,6.5608996 9.794115,6.8158703 9.4148108,7.624537 8.5784053,8.0728068 7.6830841,7.9472731 Z"
     id="path870"
     inkscape:connector-curvature="0" />
  <path
     style="opacity:0.91000001;fill:#f9f9f9;fill-opacity:1;stroke:#05030d;stroke-width:0;stroke-miterlimit:4;stroke-dasharray:none;stroke-dashoffset:0;stroke-opacity:1;paint-order:markers fill stroke"
     d="M 7.6830841,7.9489651 C 7.0656398,7.8584529 6.5025084,7.4250474 6.212086,6.8168339 6.0540963,6.4859658 6.0479881,6.455475 6.0502436,6.0089497 6.0521452,5.6324864 6.0718029,5.4961716 6.1544046,5.2866547 6.3441244,4.8054361 6.8253259,4.3306227 7.3073787,4.1489867 8.3692252,3.7488863 9.5749305,4.3565744 9.8935014,5.4524195 10.013821,5.8663035 9.9722757,6.4348618 9.7938729,6.8158703 9.4159072,7.6230783 8.5673531,8.0785915 7.6830841,7.9489651 Z"
     id="path872"
     inkscape:connector-curvature="0" />
  <path
     style="opacity:0.91000001;fill:#4d4d4d;fill-opacity:1;stroke:#05030d;stroke-width:0;stroke-miterlimit:4;stroke-dasharray:none;stroke-dashoffset:0;stroke-opacity:1;paint-order:markers fill stroke"
     d="M 2.5884035,12.393195 C 1.4927684,11.015515 0.98239775,9.4710378 1.0436672,7.7185351 1.0788146,6.7132087 1.2864562,5.8636026 1.7143574,4.9742767 3.2227388,1.8393409 6.8610101,0.28389851 10.14508,1.3699543 c 1.128436,0.3731789 1.925705,0.8665487 2.77795,1.7190662 0.811845,0.8121041 1.344572,1.6637072 1.690784,2.7028391 0.745379,2.2372036 0.327339,4.6205784 -1.142911,6.5160894 -0.403897,0.520723 -0.363501,0.512674 -0.639082,0.127337 -0.297919,-0.416569 -1.026152,-1.119917 -1.459954,-1.410064 -0.670791,-0.448656 -1.4336555,-0.76587 -2.2524723,-0.93662 -0.5262978,-0.1097497 -1.7322092,-0.1091938 -2.2539028,10e-4 -1.6074625,0.339656 -2.8577672,1.170651 -3.8704065,2.572407 L 2.9032808,12.78913 Z M 8.821461,7.8329441 C 9.1576236,7.6750135 9.5571871,7.3225208 9.7253919,7.0355013 10.326209,6.010284 9.9288031,4.6894678 8.8687165,4.1882605 7.7184142,3.6443994 6.3695179,4.2730706 6.0493541,5.5022618 5.784943,6.5174037 6.37432,7.5815044 7.3853015,7.9142719 7.5801691,7.9784132 7.7412259,7.9949082 8.0808316,7.985505 8.4708072,7.9747075 8.5578949,7.9567686 8.821461,7.8329441 Z"
     id="path874"
     inkscape:connector-curvature="0" />
  <path
     style="opacity:0.91000001;fill:#4d4d4d;fill-opacity:1;stroke:#05030d;stroke-width:0;stroke-miterlimit:4;stroke-dasharray:none;stroke-dashoffset:0;stroke-opacity:1;paint-order:markers fill stroke"
     d=""
     id="path876"
     inkscape:connector-curvature="0" />
  <path
     style="opacity:0.91000001;fill:#4d4d4d;fill-opacity:1;stroke:#05030d;stroke-width:0;stroke-miterlimit:4;stroke-dasharray:none;stroke-dashoffset:0;stroke-opacity:1;paint-order:markers fill stroke"
     d="M 2.4817979,12.210779 C 1.8467344,11.359118 1.4128878,10.422381 1.1995983,9.4423248 1.0656455,8.8268176 1.0534057,7.2131787 1.1782486,6.6276682 1.8054301,3.6861997 4.1802388,1.4889225 7.152754,1.0997938 c 0.5477258,-0.071702 1.6932825,-0.02732 2.222163,0.086093 0.904449,0.1939502 1.885037,0.6159579 2.595002,1.1167902 0.491374,0.3466309 1.370869,1.2216485 1.71769,1.7089447 1.289938,1.8124114 1.615991,4.2778598 0.839739,6.3496673 -0.27799,0.74195 -0.831368,1.689065 -1.258648,2.154196 l -0.173511,0.188882 -0.164888,-0.198874 C 12.603986,12.111919 11.6551,11.191854 11.395395,11.017207 11.05415,10.787728 10.857023,10.687292 10.717889,10.672019 c -0.06135,-0.0067 -0.135348,-0.0448 -0.164443,-0.08459 -0.06422,-0.08783 -0.5819562,-0.30453 -0.6407539,-0.268191 -0.023098,0.01427 -0.041996,0.0071 -0.041996,-0.01601 0,-0.05944 -0.6832742,-0.238866 -0.9650876,-0.253425 -0.129736,-0.0067 -0.247403,-0.02371 -0.2614819,-0.03778 C 8.6300476,9.997944 8.3285037,9.987822 7.9740293,9.989531 c -0.4249199,0.00205 -0.6143848,0.016812 -0.5561099,0.043336 0.060401,0.02749 0.022412,0.03199 -0.1199721,0.01421 -0.3662376,-0.04574 -1.2855016,0.210643 -1.957154,0.545851 -0.4018861,0.200574 -1.0180167,0.608758 -1.1038422,0.731291 -0.037017,0.05285 -0.067303,0.07719 -0.067303,0.05408 0,-0.07146 -0.7426402,0.689481 -1.0030413,1.027754 C 3.0309496,12.582281 2.9077993,12.72634 2.8929386,12.726187 2.8780779,12.726054 2.6930646,12.4941 2.4817979,12.210779 Z M 8.8148434,7.8536477 c 0.1363319,-0.066836 0.3022112,-0.171876 0.3686214,-0.2334226 0.06641,-0.061546 0.1686551,-0.1432947 0.2272115,-0.1816623 0.058556,-0.038368 0.106466,-0.097303 0.106466,-0.1309677 0,-0.033665 0.020325,-0.061209 0.045167,-0.061209 0.065794,0 0.3139943,-0.4077765 0.288553,-0.4740744 -0.011873,-0.030941 -0.00431,-0.056256 0.016812,-0.056256 0.064416,0 0.1310909,-0.3992563 0.1309999,-0.7844466 -4.42e-5,-0.200531 -0.018294,-0.3646019 -0.040549,-0.3646019 -0.022254,0 -0.029343,-0.028975 -0.015754,-0.064389 C 9.9559621,5.4672047 9.896186,5.2908326 9.8095362,5.1106809 9.6295939,4.7365648 9.1767309,4.2661491 9.0451317,4.3166484 8.9957239,4.335608 8.9827702,4.3276711 9.0048399,4.2919612 9.0413138,4.2329454 8.8353879,4.1330743 8.4785792,4.0367316 8.217495,3.9662358 7.7051812,3.9558506 7.7051812,4.0210539 c 0,0.02597 -0.046773,0.033297 -0.1104855,0.017306 -0.070593,-0.017718 -0.1104854,-0.0091 -0.1104854,0.023863 0,0.028376 -0.021615,0.038235 -0.048033,0.021907 -0.06656,-0.041136 -0.3980384,0.1146162 -0.363357,0.1707314 0.016921,0.027378 4.42e-5,0.034754 -0.042316,0.018498 -0.1178449,-0.04522 -0.5236389,0.2930857 -0.7168015,0.5975905 -0.042402,0.066844 -0.061063,0.121534 -0.041468,0.121534 0.019595,0 -0.00104,0.026814 -0.045863,0.059587 -0.044819,0.032773 -0.067334,0.082491 -0.050033,0.1104854 0.017302,0.027994 0.011167,0.050899 -0.013633,0.050899 -0.076194,0 -0.1810971,0.441312 -0.1810971,0.7618492 0,0.3298477 0.073935,0.6965586 0.1404371,0.6965586 0.022856,0 0.029687,0.019205 0.015179,0.042678 -0.042806,0.069262 0.1462805,0.3949514 0.3677658,0.6334496 0.2209183,0.2378884 0.5704429,0.4849533 0.6321309,0.4468279 0.020751,-0.012825 0.037729,-0.00392 0.037729,0.019802 0,0.1010496 0.380499,0.1728165 0.8838834,0.1667115 0.4579308,-0.00555 0.5327666,-0.018191 0.7561095,-0.1276843 z"
     id="path878"
     inkscape:connector-curvature="0" />
  <path
     style="opacity:0.91000001;fill:#4d4d4d;fill-opacity:1;stroke:#05030d;stroke-width:0;stroke-miterlimit:4;stroke-dasharray:none;stroke-dashoffset:0;stroke-opacity:1;paint-order:markers fill stroke"
     d="M 2.6551737,12.431989 C 1.914723,11.510743 1.3915555,10.41008 1.1776527,9.3235128 1.1221283,9.0414642 1.1037116,8.7055982 1.1037414,7.9755905 1.1037866,6.8700586 1.1714388,6.4297627 1.4599493,5.6573113 2.3939717,3.1565804 4.5044701,1.4727481 7.1737674,1.0986192 c 0.5099712,-0.071478 1.6632809,-0.023158 2.2041336,0.092345 1.193524,0.2548855 2.30046,0.8057535 3.128677,1.5569901 1.312659,1.1906493 2.004492,2.3784131 2.322694,3.9876864 0.12885,0.6516422 0.136893,1.8292525 0.01677,2.45529 -0.223821,1.1664753 -0.879221,2.5503133 -1.569811,3.3145623 l -0.179705,0.198874 -0.165393,-0.198874 c -0.19345,-0.23261 -1.036111,-1.076383 -1.078746,-1.080169 -0.01603,-0.0014 -0.07257,-0.05779 -0.12564,-0.125263 -0.154368,-0.196248 -0.923116,-0.685044 -0.983083,-0.625078 -0.03213,0.03213 -0.254872,-0.07727 -0.232154,-0.114033 0.03095,-0.05008 -0.190551,-0.133002 -0.271891,-0.101789 -0.04681,0.01796 -0.06328,0.01098 -0.04477,-0.01898 0.03701,-0.05988 -0.2124244,-0.15058 -0.3105522,-0.112925 -0.044992,0.01727 -0.061337,0.01001 -0.043278,-0.01921 0.03758,-0.06081 -0.6182208,-0.241853 -0.9354116,-0.258239 -0.129736,-0.0067 -0.247403,-0.02371 -0.2614819,-0.03778 -0.04461,-0.04461 -1.2555313,-0.028852 -1.2278251,0.01598 0.015175,0.02455 -0.036044,0.03156 -0.1250969,0.01711 C 6.9727913,9.9934363 5.9874486,10.270193 5.3407929,10.592926 4.5867028,10.969278 3.8572257,11.566652 3.2546558,12.301278 3.0927465,12.49867 2.9462686,12.676814 2.9291493,12.697154 2.91203,12.717493 2.788741,12.598169 2.6551737,12.431989 Z M 8.8270878,7.8474119 C 8.9607915,7.7819966 9.1289163,7.6746958 9.2006987,7.6089649 9.2724807,7.543234 9.3680744,7.4664462 9.4131286,7.4383246 c 0.045054,-0.028122 0.077143,-0.072274 0.071308,-0.098117 -0.00583,-0.025843 0.028344,-0.067835 0.075953,-0.093314 0.126965,-0.06795 0.3182237,-0.414586 0.2815222,-0.5102292 -0.019607,-0.051095 -0.0136,-0.068899 0.01689,-0.050056 0.02922,0.018059 0.064953,-0.051013 0.093416,-0.1805756 0.056649,-0.2578567 0.061056,-0.8834367 0.00646,-0.9171776 -0.021959,-0.013573 -0.02922,-0.052581 -0.016134,-0.086684 C 9.9729062,5.4230489 9.7072267,4.8622338 9.6243074,4.8304147 9.5899526,4.8172315 9.5716355,4.7906026 9.5836028,4.7712392 9.6228273,4.7077722 9.1231185,4.286722 9.044414,4.3169237 8.995994,4.3355037 8.982881,4.3274917 9.004489,4.2925297 9.046939,4.2238447 8.6654123,4.0569027 8.4491313,4.0495261 8.3600143,4.0464861 8.2965544,4.0287041 8.3081086,4.0100091 8.3196626,3.9913141 8.1887308,3.9760181 8.0171487,3.9760181 c -0.1824039,0 -0.3119675,0.018704 -0.3119675,0.045036 0,0.02597 -0.046773,0.033297 -0.1104855,0.017306 -0.070593,-0.017718 -0.1104854,-0.0091 -0.1104854,0.023863 0,0.028376 -0.021615,0.038235 -0.048033,0.021907 -0.06656,-0.041136 -0.3980384,0.1146162 -0.363357,0.1707314 0.016921,0.027378 4.42e-5,0.034754 -0.042316,0.018498 C 6.9126594,4.228139 6.5068654,4.566445 6.3137028,4.8709498 c -0.042402,0.066844 -0.061063,0.121534 -0.041468,0.121534 0.019595,0 -0.00104,0.026814 -0.045863,0.059587 -0.044819,0.032773 -0.067334,0.082491 -0.050033,0.1104854 0.017302,0.027994 0.011167,0.050899 -0.013633,0.050899 -0.076194,0 -0.1810971,0.441312 -0.1810971,0.7618492 0,0.3298477 0.073935,0.6965586 0.1404371,0.6965586 0.022856,0 0.029687,0.019205 0.015179,0.042678 -0.04089,0.066162 0.1403063,0.3865456 0.3447075,0.6094964 0.2203685,0.2403668 0.5119515,0.4604856 0.5658573,0.4271703 0.02127,-0.013146 0.038673,-0.00167 0.038673,0.025509 0,0.027176 0.019887,0.03712 0.044194,0.022097 0.024307,-0.015022 0.044194,-0.00867 0.044194,0.014127 0,0.043595 0.1818961,0.1258239 0.3310218,0.1496437 0.048375,0.00773 0.3107408,0.011735 0.5830357,0.00891 0.4418785,-0.00459 0.5212057,-0.017924 0.7381792,-0.1240791 z"
     id="path880"
     inkscape:connector-curvature="0" />
  <path
     style="opacity:0.91000001;fill:#000000;fill-opacity:1;stroke:#05030d;stroke-width:0;stroke-miterlimit:4;stroke-dasharray:none;stroke-dashoffset:0;stroke-opacity:1;paint-order:markers fill stroke"
     d="M 2.6551153,12.431989 C 1.9110954,11.506526 1.3946519,10.422968 1.1792427,9.3354408 1.0685514,8.7765984 1.0688038,7.1569606 1.1796646,6.6276682 1.7924788,3.7018573 4.1780569,1.4941992 7.152754,1.1000609 7.7042584,1.0269883 8.7974101,1.0704456 9.3707893,1.1882371 10.292625,1.3776134 11.353404,1.8450295 12.0529,2.370069 c 0.477748,0.3585963 1.199308,1.0725883 1.535214,1.5191134 1.342937,1.7851861 1.721223,4.2092281 0.986347,6.3204726 -0.280549,0.805997 -0.827625,1.773229 -1.298549,2.295838 l -0.179206,0.198874 -0.20984,-0.242717 c -0.115412,-0.133495 -0.387511,-0.411918 -0.604665,-0.618719 -0.217154,-0.2068 -0.489041,-0.468648 -0.604192,-0.581883 -0.229465,-0.225647 -0.781774,-0.573732 -0.936305,-0.590094 -0.05369,-0.0057 -0.111751,-0.01287 -0.129034,-0.01598 -0.01728,-0.0031 -0.0708,-0.0479 -0.118917,-0.09955 -0.04812,-0.05165 -0.138027,-0.09391 -0.19979,-0.09391 -0.06176,0 -0.102739,-0.01546 -0.09106,-0.03436 0.02658,-0.04301 -0.2397008,-0.139126 -0.2934307,-0.105919 -0.021701,0.01341 -0.0721,-0.0083 -0.1119973,-0.04816 -0.039897,-0.0399 -0.1083968,-0.06316 -0.1522216,-0.0517 -0.043825,0.01146 -0.085606,0.0036 -0.092848,-0.01748 -0.017946,-0.05222 -0.6856704,-0.186849 -0.7906245,-0.159403 -0.046333,0.01212 -0.095379,0.004 -0.1089908,-0.01801 -0.035718,-0.057793 -1.2127756,-0.051823 -1.2127756,0.0062 0,0.0286 -0.057211,0.03546 -0.1501625,0.01803 -0.2419994,-0.0454 -1.3966336,0.233666 -1.3966336,0.337554 0,0.02496 -0.019688,0.03321 -0.04375,0.01834 -0.061609,-0.03808 -0.8085057,0.319289 -0.7762829,0.371426 0.014547,0.02354 -0.00878,0.0402 -0.051846,0.03703 -0.090476,-0.0067 -0.321363,0.133856 -0.321363,0.195585 0,0.02295 -0.020028,0.02934 -0.044506,0.01421 -0.024478,-0.01513 -0.056393,0.0035 -0.070922,0.04133 -0.014529,0.03786 -0.042859,0.05868 -0.062955,0.04626 -0.020097,-0.01242 -0.064543,0.0174 -0.09877,0.06626 -0.034227,0.04886 -0.073095,0.07798 -0.086374,0.0647 -0.013279,-0.01328 -0.066185,0.0293 -0.1175701,0.09463 -0.051385,0.06532 -0.093427,0.101855 -0.093427,0.08118 0,-0.06345 -0.4780567,0.423426 -0.8279977,0.843268 -0.1823388,0.218761 -0.3468042,0.414389 -0.3654786,0.434729 -0.018674,0.02034 -0.1432621,-0.09898 -0.2768615,-0.265165 z m 5.968735,-4.4998281 c 0.061281,-0.015381 0.089083,-0.045401 0.070257,-0.075862 -0.020738,-0.033554 -0.00593,-0.040728 0.044299,-0.021454 0.08253,0.03167 0.425182,-0.1601871 0.425182,-0.2380669 0,-0.025436 0.019887,-0.033957 0.044194,-0.018935 0.024307,0.015022 0.044194,0.00689 0.044194,-0.018078 0,-0.024965 0.05469,-0.075061 0.121534,-0.1113243 0.066844,-0.036263 0.1016466,-0.067264 0.07734,-0.068891 -0.024307,-0.00163 0.019485,-0.057114 0.097316,-0.1233035 0.07783,-0.06619 0.1474362,-0.1501042 0.1546796,-0.1864764 0.00724,-0.036372 0.040515,-0.087642 0.073936,-0.1139321 0.033422,-0.02629 0.060767,-0.10094 0.060767,-0.1658882 0,-0.064948 0.015274,-0.1180872 0.033942,-0.1180872 0.066079,0 0.096352,-0.1599564 0.1144567,-0.6047558 0.011412,-0.2803421 0.00119,-0.4606601 -0.02709,-0.4781411 C 9.9338827,5.5735297 9.923985,5.5438516 9.9368632,5.523014 9.9754009,5.4606587 9.7879783,5.0115096 9.670546,4.884798 9.6104808,4.8199865 9.5613365,4.7497864 9.5613365,4.7287977 c 0,-0.063557 -0.4050366,-0.3992266 -0.4817271,-0.3992266 -0.039345,0 -0.094301,-0.036453 -0.1221249,-0.081006 -0.060208,-0.096409 -0.4979017,-0.2437276 -0.6036111,-0.2031632 -0.041901,0.016079 -0.074168,0.00718 -0.074168,-0.020461 0,-0.062197 -0.5142827,-0.066447 -0.5525275,-0.00457 -0.015077,0.024396 -0.075913,0.032184 -0.1351908,0.017306 -0.064271,-0.016131 -0.1077768,-0.00784 -0.1077768,0.020548 0,0.026179 -0.029831,0.036151 -0.066291,0.02216 -0.03646,-0.013991 -0.066291,-0.00405 -0.066291,0.022097 0,0.026145 -0.028294,0.036678 -0.062874,0.023408 -0.034581,-0.01327 -0.1041869,0.017185 -0.1546796,0.067678 -0.050493,0.050493 -0.1186525,0.091805 -0.1514658,0.091805 -0.1497745,0 -0.6610224,0.4863238 -0.6999902,0.6658648 -0.00756,0.034836 -0.027069,0.073471 -0.04335,0.085854 -0.016281,0.012383 -0.036169,0.051685 -0.044194,0.087336 -0.00803,0.035651 -0.037741,0.089864 -0.066034,0.1204724 -0.071912,0.077796 -0.1474313,0.4578453 -0.1474313,0.741948 0,0.2909563 0.079875,0.6850097 0.1388528,0.6850097 0.023727,0 0.030482,0.020482 0.01501,0.045515 -0.03208,0.051907 0.140731,0.3637693 0.3189157,0.5755302 0.1650971,0.1962062 0.5430717,0.4894058 0.5919607,0.4591907 0.022063,-0.013636 0.040115,-0.00256 0.040115,0.024618 0,0.027176 0.019887,0.03712 0.044194,0.022097 0.024307,-0.015022 0.044194,-0.00779 0.044194,0.016062 0,0.045888 0.212566,0.1245568 0.3977475,0.1472037 0.1689919,0.020666 0.9367654,-0.00118 1.0512517,-0.029918 z"
     id="path882"
     inkscape:connector-curvature="0" />
  <path
     style="opacity:0.91000001;fill:#ffffff;fill-opacity:1;stroke:#05030d;stroke-width:0;stroke-miterlimit:4;stroke-dasharray:none;stroke-dashoffset:0;stroke-opacity:1;paint-order:markers fill stroke"
     d="M 7.2632394,15.927236 C 7.2024724,15.916748 7.0035986,15.887086 6.8212977,15.86132 6.3789807,15.798807 5.5734522,15.584855 5.1519286,15.417929 4.6138893,15.204862 3.8318997,14.783182 3.3746792,14.459565 2.8331924,14.076304 1.9303309,13.173853 1.5523619,12.638076 0.84557253,11.63619 0.39133012,10.564599 0.16111753,9.3560295 0.03798291,8.7095974 0.05043289,7.2103865 0.18447211,6.5437015 0.79378412,3.5131023 2.9155174,1.2042168 5.89322,0.33140063 6.5884222,0.12762488 7.1326518,0.07384388 8.2355112,0.09993439 c 1.4386636,0.03403468 2.0953268,0.19606262 3.3396548,0.82404053 0.810661,0.40911828 1.245407,0.71598098 1.90166,1.34227248 0.750339,0.7160833 1.181748,1.2956291 1.629154,2.1885693 1.910365,3.8127408 0.43978,8.4650143 -3.324451,10.5170753 -0.775975,0.423021 -1.579262,0.704257 -2.5074547,0.877877 -0.33609,0.06287 -1.7744036,0.118277 -2.0108349,0.07747 z M 3.27549,12.405492 c 0.8174574,-1.073387 1.9015449,-1.780817 3.3469339,-2.184072 0.3244025,-0.09051 0.5325093,-0.115253 1.1285539,-0.134195 0.9077209,-0.02885 1.3626049,0.02738 2.0366889,0.251743 1.2150663,0.404428 2.0849873,1.013395 2.9192223,2.043533 0.192572,0.237793 0.368316,0.432352 0.390542,0.432352 0.05612,0 0.444878,-0.473839 0.700923,-0.854313 0.497671,-0.739521 0.774021,-1.351822 1.010655,-2.2392797 C 14.963543,9.1417046 14.968631,9.0972899 14.98691,8.1684821 15.00348,7.3262822 14.99451,7.1537539 14.9117,6.7208843 14.62953,5.2459992 13.911986,3.9290503 12.830056,2.9003141 11.872534,1.9898693 10.711314,1.3900944 9.3403656,1.0978756 8.7090421,0.96330844 7.4175359,0.95190935 6.7550064,1.0750568 3.9271197,1.6006891 1.738334,3.7311868 1.1112256,6.5685417 c -0.082294,0.3723377 -0.096479,0.5775807 -0.098778,1.4291459 -0.00237,0.8762281 0.00905,1.0460244 0.096094,1.4291459 0.2630331,1.1577575 0.7358106,2.1397555 1.4662466,3.0455145 0.1519143,0.188377 0.3015738,0.342505 0.3325765,0.342505 0.031003,0 0.1966592,-0.184213 0.3681253,-0.409361 z"
     id="path884"
     inkscape:connector-curvature="0" />
  <path
     style="opacity:0.91000001;fill:#ffffff;fill-opacity:1;stroke:#05030d;stroke-width:0;stroke-miterlimit:4;stroke-dasharray:none;stroke-dashoffset:0;stroke-opacity:1;paint-order:markers fill stroke"
     d="M 7.5284045,7.8933878 C 6.985435,7.7455738 6.5131594,7.3516846 6.2453326,6.8232753 6.0954162,6.5274973 6.0921175,6.5094036 6.0931869,5.9887325 6.094202,5.4944856 6.103289,5.4379969 6.2205787,5.1968078 6.4003441,4.8271467 6.8250681,4.4091345 7.2025369,4.2303673 7.4880693,4.0951406 7.5354945,4.0865032 7.9924433,4.0865032 c 0.4672024,0 0.4991396,0.00621 0.8200192,0.1594554 C 9.6086488,4.6262 10.035969,5.4194612 9.9128026,6.2885901 9.8530722,6.7100818 9.6834519,7.0422309 9.3656367,7.3600461 8.8703792,7.8553036 8.1532364,8.0634875 7.5284045,7.8933878 Z"
     id="path886"
     inkscape:connector-curvature="0" />
  <path
     style="opacity:0.91000001;fill:#ffffff;fill-opacity:1;stroke:#05030d;stroke-width:0;stroke-miterlimit:4;stroke-dasharray:none;stroke-dashoffset:0;stroke-opacity:1;paint-order:markers fill stroke"
     d="M 7.5284045,7.8826435 C 7.0152879,7.7453588 6.5040369,7.314081 6.2441785,6.7993044 6.1212099,6.5557049 6.1141909,6.5122837 6.1141909,5.9951717 c 0,-0.5202696 0.00646,-0.5595641 0.1340474,-0.8148812 C 6.4143666,4.8478383 6.8886096,4.3877752 7.2332427,4.2247376 7.4542016,4.1202073 7.5297925,4.1086003 7.9895886,4.1086003 c 0.4784163,0 0.5290903,0.00862 0.7981029,0.1357195 0.418645,0.1978003 0.7382662,0.5095409 0.9389674,0.9158161 C 9.8898084,5.490396 9.8927862,5.5056053 9.8924296,6.00681 9.8920856,6.4902007 9.8846393,6.5323695 9.7515806,6.8044449 9.4847025,7.3501509 8.9303213,7.7800442 8.3327728,7.9046551 8.0285692,7.9680928 7.8271831,7.9625819 7.5284045,7.8826435 Z"
     id="path888"
     inkscape:connector-curvature="0" />
  <path
     style="opacity:0.91000001;fill:#ffffff;fill-opacity:1;stroke:#05030d;stroke-width:0;stroke-miterlimit:4;stroke-dasharray:none;stroke-dashoffset:0;stroke-opacity:1;paint-order:markers fill stroke"
     d="M 6.9185646,15.87562 C 6.3215107,15.779823 5.6196661,15.597282 5.1662651,15.419869 4.4653685,15.145612 3.5451389,14.616238 3.0543138,14.204942 2.6063248,13.82954 2.0068987,13.219076 1.6835696,12.808956 1.1590944,12.143695 0.65395792,11.15082 0.38727005,10.261002 0.12841872,9.3973309 0.06102366,8.8559202 0.08324551,7.8186548 0.09819001,7.1210791 0.13194856,6.7731999 0.22395096,6.3686963 L 0.25369268,6.2379319 H 0.72175863 1.1898246 l -0.045854,0.1879518 c -0.086057,0.3527434 -0.14678892,0.8903891 -0.1377277,1.2192771 0.0032,0.1160373 0.00426,0.1124743 0.014447,-0.048193 0.00605,-0.095422 0.011038,0.08241 0.011091,0.3951807 5.2e-5,0.3127711 -0.00489,0.4906024 -0.010995,0.3951807 l -0.011091,-0.173494 -0.00364,0.2087308 c -0.0161701,0.9265321 0.3502878,2.14711 0.947273,3.155125 0.3108987,0.524955 0.8608904,1.233735 0.9573413,1.233735 0.021174,0 0.109029,-0.09156 0.2247011,-0.234175 C 3.522697,12.099704 3.6147851,11.994666 3.8433169,11.769747 4.4876992,11.135553 5.2378401,10.68445 6.1848304,10.361659 6.7871569,10.15635 6.98694,10.120887 7.6960369,10.093408 c 1.0008154,-0.03878 1.5314708,0.03695 2.3280611,0.332272 0.63168,0.23418 1.179425,0.539281 1.665475,0.92769 0.280849,0.22443 0.711394,0.661925 1.053989,1.071004 0.163572,0.195314 0.312269,0.364227 0.330438,0.375363 0.04422,0.0271 0.100663,-0.02756 0.356172,-0.344938 0.583345,-0.724603 1.022474,-1.538743 1.268511,-2.351807 0.205627,-0.6795228 0.266265,-0.9921852 0.268423,-1.3840508 8.64e-4,-0.1568906 0.0064,-0.2653244 0.01234,-0.2409639 0.02194,0.090196 0.0044,-1.3441975 -0.01804,-1.4785999 -0.03904,-0.2334507 -0.10059,-0.5360564 -0.129124,-0.6348241 -0.01511,-0.052286 -0.02746,-0.1021653 -0.02746,-0.1108434 0,-0.00868 0.21253,-0.015778 0.472289,-0.015778 0.259759,0 0.47229,0.00338 0.47229,0.00752 0,0.00413 0.01693,0.089809 0.03763,0.1903878 0.274618,1.3346668 0.175965,2.7887724 -0.279631,4.1216423 -0.920404,2.692687 -3.197626,4.673407 -6.036375,5.250418 -0.4052507,0.08237 -1.0559079,0.127815 -1.7794523,0.124278 -0.3763116,-0.0018 -0.4786516,-0.0093 -0.7730017,-0.05656 z"
     id="path19"
     inkscape:connector-curvature="0" />
  <path
     style="fill:none;stroke:#000000;stroke-width:1px;stroke-linecap:butt;stroke-linejoin:miter;stroke-opacity:1"
     d="m 2.4876088,13.114385 c 3.2838068,2.971366 7.198404,3.371518 11.0452882,-0.110137"
     id="path39"
     inkscape:connector-curvature="0"
     sodipodi:nodetypes="cc" />
  <path
     style="opacity:0.91000001;fill:#ffffff;fill-opacity:1;stroke:#05030d;stroke-width:0;stroke-miterlimit:4;stroke-dasharray:none;stroke-dashoffset:0;stroke-opacity:1;paint-order:markers fill stroke"
     d="m 13.550052,13.001589 -0.293408,-0.327673 0.195679,-0.248065 c 0.780145,-0.989 1.344697,-2.270183 1.500493,-3.405184 0.04514,-0.328848 0.04543,-1.8109888 4.01e-4,-2.071908 C 14.848585,6.3424175 14.687974,5.7811338 14.470707,5.2625522 13.869329,3.8271523 12.702509,2.5423192 11.346726,1.8226078 l -0.253103,-0.1343584 0.860263,-5.232e-4 0.860262,-5.232e-4 0.189323,0.1542236 c 0.282776,0.2303513 1.066481,1.0262878 1.270826,1.2906596 0.741726,0.9596102 1.292363,2.1785988 1.533176,3.3941126 0.171699,0.86666 0.166926,2.03255 -0.01211,2.9579214 -0.194602,1.0058338 -0.613532,2.0311248 -1.17517,2.8761118 -0.235932,0.354963 -0.693026,0.941559 -0.747662,0.959489 -0.01599,0.0052 -0.161106,-0.137912 -0.322479,-0.318132 z"
     id="path41"
     inkscape:connector-curvature="0" />
  <path
     style="opacity:0.91000001;fill:#000000;fill-opacity:1;stroke:#05030d;stroke-width:0;stroke-miterlimit:4;stroke-dasharray:none;stroke-dashoffset:0;stroke-opacity:1;paint-order:markers fill stroke"
     d="m 13.556953,13.012069 c -0.155306,-0.173792 -0.28522,-0.324073 -0.288699,-0.333959 -0.0035,-0.0099 0.06759,-0.109982 0.157931,-0.222437 0.670153,-0.834205 1.141416,-1.788405 1.400962,-2.8366356 0.140247,-0.5664128 0.157127,-0.7735731 0.145386,-1.7842651 -0.01,-0.8603557 -0.0137,-0.9142063 -0.08495,-1.2330882 C 14.745466,5.9656277 14.581392,5.4845955 14.322508,4.9450058 13.704123,3.6561112 12.602049,2.4991653 11.352612,1.8272399 l -0.258989,-0.1392796 0.864152,-3.786e-4 0.864151,-3.787e-4 0.171803,0.1404166 c 0.254726,0.2081909 1.078387,1.0410772 1.270838,1.2850716 0.792868,1.0052166 1.399385,2.4165278 1.601701,3.72702 0.05868,0.380094 0.08252,1.4442099 0.04188,1.8690358 -0.134835,1.409301 -0.632754,2.744451 -1.457257,3.907579 -0.19734,0.278388 -0.555253,0.711729 -0.587845,0.711729 -0.01304,0 -0.150783,-0.142194 -0.306089,-0.315986 z"
     id="path43"
     inkscape:connector-curvature="0" />
  <path
     style="opacity:0.91000001;fill:#000000;fill-opacity:1;stroke:#05030d;stroke-width:0;stroke-miterlimit:4;stroke-dasharray:none;stroke-dashoffset:0;stroke-opacity:1;paint-order:markers fill stroke"
     d="M 1.9640825,13.140854 C 1.093219,12.155756 0.45340863,10.83575 0.18865622,9.4779358 0.05157717,8.7749093 0.03888658,7.4318061 0.16218287,6.6761395 0.21219329,6.3696323 0.35494074,5.8391004 0.50181811,5.413859 0.97227709,4.0517793 1.8314814,2.8033452 2.9129067,1.910518 l 0.2704876,-0.223315 0.8472523,1.269e-4 0.8472525,1.269e-4 -0.2998814,0.170556 C 3.0040093,2.753222 1.877063,4.1273779 1.3083848,5.8448799 1.1302582,6.3828516 0.99759141,7.1187975 1.0296721,7.3909906 c 0.00834,0.070796 0.00316,0.3468227 -0.011515,0.6133938 -0.0429071,0.7792959 0.040712,1.3779574 0.3021136,2.1629606 0.2886972,0.866972 0.6891573,1.601252 1.2457324,2.284163 0.1020051,0.125159 0.1968546,0.24348 0.2107768,0.262935 0.02295,0.03207 -0.078555,0.156047 -0.5419757,0.661958 -0.025075,0.02737 -0.082329,-0.02244 -0.2707217,-0.235547 z M 1.0095423,7.5559052 c -0.00906,-0.00906 -0.0155023,0.00704 -0.0143185,0.035781 0.001308,0.031759 0.007768,0.038219 0.0164707,0.016471 0.00788,-0.01968 0.00691,-0.043193 -0.00215,-0.052252 z"
     id="path45"
     inkscape:connector-curvature="0" />
  <path
     style="opacity:0.91000001;fill:#000000;fill-opacity:1;stroke:#05030d;stroke-width:0;stroke-miterlimit:4;stroke-dasharray:none;stroke-dashoffset:0;stroke-opacity:1;paint-order:markers fill stroke"
     d="m 3.2012893,1.6764078 c 0,-0.022903 0.6542354,-0.449829 0.9178631,-0.598958 C 4.5377654,0.84064853 5.0696184,0.60914081 5.6003408,0.43271036 6.4802676,0.14019232 6.8597198,0.09242774 8.1314393,0.11410155 9.1052696,0.13069847 9.4247455,0.16240895 9.9895144,0.29852997 10.653223,0.45849752 11.753054,0.96577899 12.456721,1.436494 l 0.354405,0.237078 -0.855775,0.00721 -0.855774,0.00721 -0.316489,-0.135366 C 10.205764,1.3056966 9.5870204,1.1272583 9.0080843,1.0407345 8.5659555,0.97465704 7.4039296,0.97479992 6.9634382,1.0409854 6.3904814,1.127075 5.7725632,1.3063761 5.1948106,1.5541876 L 4.8846973,1.687203 h -0.841704 c -0.4629372,0 -0.841704,-0.00486 -0.841704,-0.010795 z"
     id="path47"
     inkscape:connector-curvature="0" />
  <path
     style="opacity:0.91000001;fill:#000000;fill-opacity:1;stroke:#05030d;stroke-width:0;stroke-miterlimit:4;stroke-dasharray:none;stroke-dashoffset:0;stroke-opacity:1;paint-order:markers fill stroke"
     d="M 1.9862964,13.144037 C 0.92901262,11.938374 0.23586004,10.313993 0.11847554,8.7668583 0.08249116,8.2925822 0.09890547,7.217646 0.14769499,6.8533422 0.21517708,6.3494637 0.47372227,5.4647461 0.72529444,4.8768509 1.2042797,3.7575174 2.0211899,2.6631107 2.9501512,1.8962319 L 3.203359,1.687203 H 4.0249974 4.8466357 L 4.5252375,1.8781443 C 3.3695618,2.5647268 2.5481368,3.3800116 1.9077265,4.4760891 1.503638,5.1676964 1.1829394,6.056172 1.0606841,6.8227682 0.993689,7.2428576 0.9905391,8.8343788 1.0560141,9.1842387 1.179432,9.8437494 1.4178286,10.554285 1.7154855,11.149777 c 0.2551988,0.510551 0.4587691,0.825692 0.865073,1.339192 0.1312837,0.165921 0.1814076,0.249612 0.1658887,0.276982 -0.051564,0.09094 -0.508377,0.589366 -0.5401633,0.589366 -0.019088,0 -0.1180806,-0.09508 -0.2199837,-0.21128 z"
     id="path49"
     inkscape:connector-curvature="0" />
  <path
     style="opacity:0.91000001;fill:#000000;fill-opacity:1;stroke:#05030d;stroke-width:0;stroke-miterlimit:4;stroke-dasharray:none;stroke-dashoffset:0;stroke-opacity:1;paint-order:markers fill stroke"
     d="M 2.0606295,13.214816 C 1.5570014,12.682612 1.0125216,11.82064 0.68269274,11.033389 0.43392992,10.43963 0.240472,9.7353412 0.16000268,9.1305207 0.06641348,8.4270891 0.08860123,7.1099965 0.20334022,6.5579502 0.58896044,4.702607 1.5435606,3.0846143 2.9509761,1.9008649 L 3.2050087,1.687203 h 0.8023679 c 0.4413022,0 0.8023677,0.00521 0.8023677,0.011582 0,0.00637 -0.107344,0.073102 -0.2385421,0.1482922 C 3.8030821,2.2872921 3.0150965,2.9537208 2.5085744,3.5915183 1.76319,4.5300839 1.2355091,5.7064238 1.0637339,6.8124492 1.0109769,7.1521424 0.9836113,8.3917148 1.0193529,8.8227821 c 0.059773,0.7209038 0.3086249,1.5522749 0.6973638,2.3297729 0.2226495,0.445311 0.3948711,0.720574 0.7271566,1.162221 0.1616796,0.214891 0.2939629,0.407795 0.2939629,0.428675 0,0.04092 -0.2524766,0.341601 -0.4301282,0.512258 l -0.1091545,0.104857 z"
     id="path51"
     inkscape:connector-curvature="0" />
  <path
     style="opacity:0.91000001;fill:#000000;fill-opacity:1;stroke:#05030d;stroke-width:0;stroke-miterlimit:4;stroke-dasharray:none;stroke-dashoffset:0;stroke-opacity:1;paint-order:markers fill stroke"
     d="M 2.0810273,13.244514 C 1.5564226,12.680818 0.99758073,11.796467 0.67809872,11.02442 0.30267122,10.117178 0.13186554,9.3111548 0.1032749,8.3118564 0.07444099,7.3040552 0.14496007,6.6585877 0.36677262,5.9000385 0.83045473,4.3143496 1.7257202,2.9251363 2.9373451,1.9111957 L 3.2050087,1.687203 h 0.8023679 c 0.4413022,0 0.8023677,0.00462 0.8023677,0.010272 0,0.00565 -0.1196118,0.081048 -0.265804,0.1675514 C 2.9909438,2.7839523 1.9071682,4.0884971 1.3469117,5.713302 1.0575195,6.5525709 1.0034344,6.9621236 1.0100768,8.2639392 c 0.00382,0.7483832 0.040998,1.0292958 0.2156148,1.6291102 0.2666527,0.9159596 0.6739654,1.7100036 1.2951089,2.5247786 0.1193697,0.156581 0.2170357,0.302445 0.2170357,0.324141 0,0.04238 -0.2500587,0.340735 -0.4326225,0.516176 L 2.193565,13.365437 Z"
     id="path53"
     inkscape:connector-curvature="0" />
  <path
     style="opacity:0.91000001;fill:#000000;fill-opacity:1;stroke:#05030d;stroke-width:0;stroke-miterlimit:4;stroke-dasharray:none;stroke-dashoffset:0;stroke-opacity:1;paint-order:markers fill stroke"
     d="M 2.0239556,13.18493 C 1.2573861,12.302633 0.68095247,11.244235 0.36699556,10.142562 0.1580491,9.4093706 0.10736707,8.9814355 0.10820434,7.9574511 0.10896627,7.0256189 0.13553211,6.7727627 0.2984878,6.1463158 0.47011792,5.4865219 0.64877152,5.0141642 0.9563678,4.4068899 1.4302107,3.4714021 2.1391502,2.5778216 2.9474162,1.8972793 l 0.2504733,-0.2108929 0.8127427,0.00722 0.812743,0.00722 -0.2044646,0.1203222 C 3.3009421,2.5967472 2.3755722,3.5525704 1.748308,4.7862284 1.4381206,5.3962826 1.2202066,6.0106939 1.1013887,6.6102253 c -0.071443,0.3604883 -0.11370264,1.48779 -0.079152,2.1114436 0.041676,0.7522624 0.2632598,1.5300061 0.6793705,2.3845371 0.2213959,0.454662 0.4007491,0.743963 0.7650832,1.234098 0.1491302,0.200624 0.2711458,0.381321 0.2711458,0.401549 0,0.02023 -0.032776,0.07759 -0.072836,0.127472 -0.1003289,0.124927 -0.4533818,0.485992 -0.4752069,0.485992 -0.00979,0 -0.084417,-0.07667 -0.1658377,-0.170387 z"
     id="path55"
     inkscape:connector-curvature="0" />
  <path
     style="opacity:0.91000001;fill:#000000;fill-opacity:1;stroke:#05030d;stroke-width:0;stroke-miterlimit:4;stroke-dasharray:none;stroke-dashoffset:0;stroke-opacity:1;paint-order:markers fill stroke"
     d="m 13.561892,12.994096 c -0.150822,-0.168683 -0.269434,-0.318965 -0.263582,-0.333959 0.0059,-0.01499 0.127941,-0.183066 0.271309,-0.373493 0.651134,-0.86486 1.079709,-1.80566 1.333658,-2.9276199 0.05789,-0.2557806 0.06117,-0.3291322 0.06135,-1.3743111 L 14.96482,6.8806041 14.887145,6.5398298 C 14.428606,4.5281311 13.166813,2.8242503 11.413609,1.8492896 L 11.12214,1.687203 h 0.844497 0.844497 l 0.286246,0.2541309 c 0.395947,0.3515231 1.031214,1.017749 1.258913,1.3202651 0.700635,0.930847 1.239006,2.1843666 1.472357,3.4281715 0.05601,0.2985491 0.06145,0.4093518 0.06223,1.2676806 7.85e-4,0.8673247 -0.004,0.966855 -0.06184,1.278636 -0.235321,1.2690929 -0.617007,2.2220989 -1.289468,3.2195859 -0.225065,0.333848 -0.635112,0.84512 -0.677797,0.84512 -0.01411,0 -0.149055,-0.138014 -0.299877,-0.306697 z"
     id="path57"
     inkscape:connector-curvature="0" />
  <path
     style="opacity:0.91000001;fill:#000000;fill-opacity:1;stroke:#05030d;stroke-width:0;stroke-miterlimit:4;stroke-dasharray:none;stroke-dashoffset:0;stroke-opacity:1;paint-order:markers fill stroke"
     d="m 13.65454,13.091737 c -0.246299,-0.273733 -0.339151,-0.391209 -0.338708,-0.428533 1.99e-4,-0.01668 0.118094,-0.189811 0.261993,-0.384734 0.634629,-0.85966 1.067774,-1.798332 1.308307,-2.8352428 0.07497,-0.3231953 0.07602,-0.3402351 0.08651,-1.4119118 l 0.01062,-1.0847682 -0.07368,-0.3192221 C 14.743635,5.9083446 14.546957,5.3632008 14.238753,4.7679337 13.602101,3.5383005 12.600196,2.5050505 11.392583,1.8327218 l -0.236892,-0.1318878 0.824233,-0.00722 0.824233,-0.00722 0.180687,0.1558556 c 0.251667,0.2170806 0.904747,0.874106 1.154555,1.161529 0.67213,0.7733369 1.253434,1.9440934 1.563804,3.14953 0.161278,0.6263842 0.174662,0.7648408 0.174783,1.8082493 1.09e-4,0.8217817 -0.007,0.9862948 -0.05464,1.2648855 -0.207232,1.2121756 -0.628777,2.2585296 -1.311944,3.2564906 -0.228826,0.334266 -0.591417,0.793557 -0.639003,0.809419 -0.0158,0.0053 -0.11384,-0.08501 -0.21786,-0.200616 z"
     id="path59"
     inkscape:connector-curvature="0" />
  <path
     style="opacity:0.91000001;fill:#000000;fill-opacity:1;stroke:#05030d;stroke-width:0;stroke-miterlimit:4;stroke-dasharray:none;stroke-dashoffset:0;stroke-opacity:1;paint-order:markers fill stroke"
     d="M 11.039099,1.6513449 C 10.807387,1.5373035 10.24573,1.326821 9.9327316,1.2367306 9.4775519,1.1057162 9.1283695,1.0383925 8.7183083,1.0025854 8.2710791,0.96353269 7.2013734,0.98773948 6.8649508,1.0445258 6.3466971,1.1320041 5.6434693,1.3451669 5.1104426,1.5763533 L 4.8548658,1.687203 4.4165603,1.6839824 C 4.1754923,1.6822111 3.8126385,1.6730102 3.6102185,1.663536 L 3.2421822,1.6463101 3.6102185,1.4118555 C 4.1436638,1.0720285 4.3693108,0.94760891 4.7824823,0.76548061 5.4827249,0.45680979 6.2744944,0.21796129 6.7862355,0.16102012 c 0.3203344,-0.0356435 1.778337,-0.0354207 2.2491107,3.4366e-4 0.5801621,0.0440745 1.1436048,0.17732338 1.7111328,0.40466637 0.544901,0.21827922 1.198478,0.55736025 1.709934,0.88712665 l 0.299574,0.1931533 -0.776658,0.013631 c -0.427162,0.0075 -0.788926,0.020706 -0.80392,0.029352 -0.01499,0.00865 -0.07633,-0.00843 -0.13631,-0.037948 z"
     id="path61"
     inkscape:connector-curvature="0" />
  <path
     style="opacity:0.91000001;fill:#000000;fill-opacity:1;stroke:#05030d;stroke-width:0;stroke-miterlimit:4;stroke-dasharray:none;stroke-dashoffset:0;stroke-opacity:1;paint-order:markers fill stroke"
     d="M 1.9853204,13.144601 C 1.0137961,12.030655 0.31980535,10.497991 0.14269143,9.0751909 0.09439126,8.6871839 0.09561487,7.2158517 0.14452787,6.8669731 0.22399738,6.300146 0.49623623,5.3933822 0.77432745,4.7692586 1.233438,3.7388707 1.9565491,2.7628271 2.8186654,2.0098439 L 3.1876583,1.687561 3.5829566,1.681461 3.9782548,1.675361 3.630665,1.666841 C 3.4394906,1.6621463 3.2831741,1.6494777 3.2832952,1.6386801 3.2836632,1.6056863 4.1511894,1.0762115 4.4518284,0.92549134 4.9749097,0.66325362 5.7148096,0.39377245 6.2931157,0.25487053 6.6674953,0.16494922 7.0729914,0.13370698 7.8630825,0.1339094 c 1.6321957,4.1817e-4 2.2766565,0.12874032 3.4295415,0.68287514 0.244397,0.11746956 0.557228,0.27800746 0.69518,0.35675096 0.302657,0.1727582 0.746824,0.4561825 0.727905,0.4644784 -0.0075,0.00329 -0.332596,0.01304 -0.722441,0.021673 l -0.708811,0.015696 0.764135,0.00591 0.764135,0.00591 0.312712,0.2811713 c 0.343841,0.3091607 0.95943,0.9482559 1.160299,1.2046049 0.62075,0.7922014 1.156589,1.9206102 1.429058,3.0094197 0.148545,0.5935976 0.163071,0.7525369 0.16319,1.7856546 8.1e-5,0.8251001 -0.0071,0.9930857 -0.05407,1.2676806 -0.227179,1.327284 -0.725518,2.489715 -1.514803,3.533451 -0.124725,0.164935 -0.276705,0.355087 -0.337733,0.42256 l -0.110959,0.122679 -0.166188,-0.177203 c -0.219171,-0.233699 -0.378761,-0.433278 -0.378761,-0.473671 0,-0.01792 0.10121,-0.169461 0.224911,-0.336755 0.67983,-0.919406 1.11427,-1.864521 1.360319,-2.9593413 0.05031,-0.2238773 0.0579,-0.3676552 0.06941,-1.3145859 l 0.01291,-1.063216 -0.07131,-0.3271434 C 14.600786,5.2360366 13.960599,4.0373119 12.980099,3.0456359 12.072768,2.1279627 11.00991,1.5169503 9.7441569,1.1853664 9.07925,1.0111837 8.9235098,0.99410015 7.9993922,0.99397848 7.1302107,0.99386404 6.9772782,1.0072408 6.456969,1.1288919 5.3692031,1.3832174 4.4670346,1.8251579 3.5753922,2.5404749 2.4817354,3.4178574 1.6509106,4.6627405 1.2519494,6.0218527 1.0567542,6.6868098 1.0220136,6.9924822 1.0210368,8.053583 c -7.649e-4,0.8309646 0.019074,1.0696672 0.126823,1.525954 0.2248709,0.952263 0.6589316,1.865011 1.3012135,2.736208 0.1588196,0.215424 0.2887629,0.410091 0.2887629,0.432592 0,0.04366 -0.06978,0.129757 -0.3427948,0.422962 -0.094241,0.10121 -0.1836314,0.184018 -0.1986461,0.184018 -0.015015,0 -0.1099984,-0.09482 -0.2110749,-0.210716 z"
     id="path63"
     inkscape:connector-curvature="0" />
  <path
     style="opacity:0.91000001;fill:#000000;fill-opacity:1;stroke:#05030d;stroke-width:0;stroke-miterlimit:4;stroke-dasharray:none;stroke-dashoffset:0;stroke-opacity:1;paint-order:markers fill stroke"
     d="M 7.4405223,15.955306 C 5.9143583,15.828559 4.4517977,15.245739 3.0624092,14.210659 2.8614029,14.060912 2.6846754,13.934163 2.6696813,13.928994 c -0.014994,-0.0052 -0.03953,-0.02367 -0.054524,-0.04112 -0.014994,-0.01745 -0.1219587,-0.114905 -0.2376992,-0.216573 L 2.167021,13.486452 2.4863973,13.134634 c 0.1756569,-0.1935 0.3291414,-0.351818 0.3410765,-0.351818 0.011935,0 0.1101271,0.07689 0.2182043,0.170867 1.0106984,0.878838 2.1961874,1.538054 3.2748647,1.821057 0.6052055,0.158782 0.9270745,0.199659 1.5834326,0.201095 0.6650926,0.0015 0.9652346,-0.03335 1.5482055,-0.179508 0.6740371,-0.168995 1.5501961,-0.553799 2.2088671,-0.970122 0.366836,-0.231864 0.961841,-0.674021 1.288742,-0.957683 l 0.247712,-0.214948 0.297527,0.32775 c 0.16364,0.180262 0.307973,0.345422 0.320739,0.367023 0.02701,0.0457 0.0068,0.06461 -0.541189,0.507022 -1.468022,1.185155 -2.953268,1.864067 -4.5118522,2.062384 -0.2502443,0.03184 -1.1002767,0.05598 -1.3222045,0.03755 z"
     id="path65"
     inkscape:connector-curvature="0" />
  <path
     style="opacity:0.91000001;fill:#000000;fill-opacity:1;stroke:#05030d;stroke-width:0;stroke-miterlimit:4;stroke-dasharray:none;stroke-dashoffset:0;stroke-opacity:1;paint-order:markers fill stroke"
     d="M 7.3377799,15.945662 C 5.7851689,15.79461 4.3139191,15.180644 2.9082234,14.09717 2.7845223,14.001824 2.6833123,13.931825 2.6833123,13.941616 c 0,0.0098 -0.1158713,-0.08876 -0.2574918,-0.219008 l -0.2574918,-0.236811 0.3172999,-0.35149 c 0.174515,-0.19332 0.328615,-0.351491 0.3424444,-0.351491 0.01383,0 0.1065277,0.0715 0.2059959,0.158892 1.0231382,0.898906 2.2587759,1.576543 3.3841303,1.855894 2.2001466,0.54615 4.3900938,-0.09977 6.5179028,-1.922456 l 0.261287,-0.223817 0.320096,0.352611 c 0.176053,0.193936 0.3161,0.362002 0.311215,0.373481 -0.01459,0.03427 -0.235129,0.227117 -0.556394,0.486511 -1.418256,1.145119 -2.915358,1.835701 -4.4277934,2.042449 -0.3557128,0.04863 -1.1877281,0.07032 -1.5067327,0.03928 z"
     id="path67"
     inkscape:connector-curvature="0" />
  <path
     style="opacity:0.91000001;fill:#000000;fill-opacity:1;stroke:#05030d;stroke-width:0;stroke-miterlimit:4;stroke-dasharray:none;stroke-dashoffset:0;stroke-opacity:1;paint-order:markers fill stroke"
     d="m 10.711944,15.459751 c 0.0078,-0.0031 0.06757,-0.02641 0.132902,-0.05171 0.709485,-0.274702 1.411608,-0.673226 2.026212,-1.150073 0.214367,-0.166318 0.443577,-0.364912 0.627767,-0.543914 0.109883,-0.106788 0.268462,-0.247856 0.273245,-0.243073 0.0049,0.0049 -0.389382,0.391746 -0.494581,0.485233 -0.706276,0.627641 -1.512326,1.119612 -2.408905,1.470271 -0.0784,0.03066 -0.109798,0.03974 -0.13631,0.03941 -0.02551,-3.2e-4 -0.03078,-0.0019 -0.02033,-0.0061 z"
     id="path69"
     inkscape:connector-curvature="0" />
  <path
     style="opacity:0.91000001;fill:#000000;fill-opacity:1;stroke:#05030d;stroke-width:0;stroke-miterlimit:4;stroke-dasharray:none;stroke-dashoffset:0;stroke-opacity:1;paint-order:markers fill stroke"
     d="m 10.620017,15.463525 c 0.0016,-0.0015 0.03504,-0.01561 0.0744,-0.03126 0.882457,-0.350877 1.810866,-0.913277 2.663726,-1.613595 0.06123,-0.05028 0.112741,-0.09 0.114471,-0.08827 0.0017,0.0017 -0.04683,0.04884 -0.107918,0.104679 -0.733854,0.670882 -1.561739,1.188053 -2.497704,1.560289 -0.146659,0.05833 -0.184777,0.07096 -0.21412,0.07096 -0.01963,0 -0.03442,-0.0013 -0.03286,-0.0028 z"
     id="path71"
     inkscape:connector-curvature="0" />
  <path
     style="opacity:0.91000001;fill:#000000;fill-opacity:1;stroke:#05030d;stroke-width:0;stroke-miterlimit:4;stroke-dasharray:none;stroke-dashoffset:0;stroke-opacity:1;paint-order:markers fill stroke"
     d="m 10.646711,15.460907 c 0,-0.0028 0.05137,-0.02621 0.114159,-0.05203 0.831326,-0.341909 1.668626,-0.845311 2.474655,-1.487815 0.07251,-0.0578 0.133283,-0.103632 0.135059,-0.101857 0.0063,0.0063 -0.23932,0.219983 -0.416695,0.362606 -0.583717,0.469351 -1.245469,0.859617 -1.969812,1.161689 -0.215832,0.09001 -0.337366,0.132305 -0.337366,0.117409 z"
     id="path73"
     inkscape:connector-curvature="0" />
  <path
     style="opacity:0.91000001;fill:#000000;fill-opacity:1;stroke:#05030d;stroke-width:0;stroke-miterlimit:4;stroke-dasharray:none;stroke-dashoffset:0;stroke-opacity:1;paint-order:markers fill stroke"
     d="m 10.660341,15.453173 c 0.0056,-0.0033 0.06543,-0.02894 0.132902,-0.05707 0.812517,-0.338716 1.614934,-0.821528 2.418223,-1.455038 0.07802,-0.06153 0.143262,-0.110458 0.144988,-0.108733 0.0056,0.0056 -0.257798,0.232627 -0.429963,0.370553 -0.567156,0.454365 -1.257797,0.857708 -1.973084,1.152305 -0.158295,0.0652 -0.267024,0.104418 -0.288614,0.104113 -0.01164,-1.64e-4 -0.01256,-0.0014 -0.0045,-0.0061 z"
     id="path75"
     inkscape:connector-curvature="0" />
  <path
     style="opacity:0.91000001;fill:#000000;fill-opacity:1;stroke:#05030d;stroke-width:0;stroke-miterlimit:4;stroke-dasharray:none;stroke-dashoffset:0;stroke-opacity:1;paint-order:markers fill stroke"
     d="m 10.661188,15.453271 c 0.0061,-0.0039 0.06896,-0.03139 0.139718,-0.06107 0.816227,-0.342363 1.602379,-0.816011 2.413885,-1.454339 0.0761,-0.05986 0.139881,-0.107312 0.14174,-0.105453 0.0058,0.0058 -0.246692,0.224051 -0.419817,0.362774 -0.615882,0.4935 -1.38813,0.935968 -2.125116,1.217607 -0.09553,0.03651 -0.179373,0.05907 -0.15041,0.04048 z"
     id="path77"
     inkscape:connector-curvature="0" />
  <path
     style="opacity:0.91000001;fill:#000000;fill-opacity:1;stroke:#05030d;stroke-width:0;stroke-miterlimit:4;stroke-dasharray:none;stroke-dashoffset:0;stroke-opacity:1;paint-order:markers fill stroke"
     d=""
     id="path79"
     inkscape:connector-curvature="0" />
  <path
     style="opacity:0.91000001;fill:#000000;fill-opacity:1;stroke:#05030d;stroke-width:0;stroke-miterlimit:4;stroke-dasharray:none;stroke-dashoffset:0;stroke-opacity:1;paint-order:markers fill stroke"
     d=""
     id="path81"
     inkscape:connector-curvature="0" />
  <path
     style="opacity:0.91000001;fill:#000000;fill-opacity:1;stroke:#05030d;stroke-width:0;stroke-miterlimit:4;stroke-dasharray:none;stroke-dashoffset:0;stroke-opacity:1;paint-order:markers fill stroke"
     d="m 13.079839,14.087905 c 0,-0.0026 0.01369,-0.01844 0.03041,-0.03517 0.02753,-0.02753 0.02902,-0.03061 0.01571,-0.03255 -0.01139,-0.0017 0.01337,-0.0242 0.109755,-0.09995 0.06845,-0.0538 0.125941,-0.09633 0.127754,-0.09451 0.0018,0.0018 -0.03903,0.04097 -0.09075,0.08702 -0.05173,0.04605 -0.116283,0.105373 -0.143459,0.131829 -0.02718,0.02646 -0.04941,0.04596 -0.04941,0.04334 z"
     id="path83"
     inkscape:connector-curvature="0" />
  <path
     style="opacity:0.91000001;fill:#000000;fill-opacity:1;stroke:#05030d;stroke-width:0;stroke-miterlimit:4;stroke-dasharray:none;stroke-dashoffset:0;stroke-opacity:1;paint-order:markers fill stroke"
     d="m 13.729196,13.174868 c -0.202555,-0.215659 -0.380085,-0.423912 -0.416292,-0.488333 l -0.01498,-0.02666 0.06001,-0.08425 c 0.033,-0.04634 0.110654,-0.153258 0.172553,-0.2376 0.319617,-0.435493 0.525966,-0.767451 0.740336,-1.190989 l 0.0733,-0.144811 0.489011,-1.8e-5 c 0.268957,-9e-6 0.489012,0.0018 0.489012,0.0041 0,0.0085 -0.09717,0.230781 -0.153587,0.351335 -0.17604,0.376186 -0.445689,0.839221 -0.689144,1.183381 -0.200234,0.283061 -0.49388,0.651955 -0.596773,0.7497 l -0.02358,0.0224 z"
     id="path85"
     inkscape:connector-curvature="0" />
  <path
     style="opacity:0.91000001;fill:#000000;fill-opacity:1;stroke:#05030d;stroke-width:0;stroke-miterlimit:4;stroke-dasharray:none;stroke-dashoffset:0;stroke-opacity:1;paint-order:markers fill stroke"
     d="m 8.2544746,15.221389 v -0.24494 l 0.028966,-0.0036 c 0.015931,-0.002 0.061169,-0.0055 0.1005284,-0.0078 0.039359,-0.0023 0.135969,-0.0114 0.2146879,-0.02023 1.2651627,-0.141889 2.5147241,-0.678113 3.7621491,-1.614451 0.241061,-0.180945 0.549521,-0.434175 0.756037,-0.62067 0.07232,-0.0653 0.08223,-0.07215 0.08971,-0.06192 0.0076,0.01033 0.01113,0.0085 0.03536,-0.01796 0.07832,-0.08561 0.228043,-0.267569 0.328485,-0.399223 0.03504,-0.04593 0.06515,-0.08208 0.06691,-0.08033 0.0077,0.0077 -0.241672,0.328074 -0.349196,0.448729 -0.03274,0.03674 -0.05793,0.07047 -0.05599,0.07497 0.0019,0.0045 0.144655,0.163814 0.317136,0.354037 l 0.313603,0.345861 -0.0354,0.03258 c -0.322598,0.29692 -0.816598,0.690505 -1.217735,0.970205 -0.60822,0.424093 -1.260834,0.782614 -1.889279,1.037897 l -0.127323,0.05172 H 9.4237979 8.2544746 Z"
     id="path87"
     inkscape:connector-curvature="0" />
  <path
     style="opacity:0.91000001;fill:#000000;fill-opacity:1;stroke:#05030d;stroke-width:0;stroke-miterlimit:4;stroke-dasharray:none;stroke-dashoffset:0;stroke-opacity:1;paint-order:markers fill stroke"
     d="m 13.750431,13.198943 c -0.195647,-0.206952 -0.386859,-0.429533 -0.436352,-0.507934 -0.01547,-0.02451 -0.0167,-0.03022 -0.0091,-0.04242 0.0048,-0.0078 0.0903,-0.126042 0.189946,-0.262863 0.359133,-0.493113 0.562275,-0.817888 0.771496,-1.233436 l 0.07558,-0.150108 h 0.490072 c 0.269539,0 0.490072,0.0024 0.490072,0.0054 0,0.0075 -0.08449,0.202643 -0.139309,0.321733 -0.178917,0.38867 -0.477915,0.89973 -0.739669,1.264273 -0.187321,0.260883 -0.45141,0.590421 -0.550658,0.687128 l -0.0337,0.03284 z"
     id="path89"
     inkscape:connector-curvature="0" />
  <path
     style="opacity:0.91000001;fill:#000000;fill-opacity:1;stroke:#05030d;stroke-width:0;stroke-miterlimit:4;stroke-dasharray:none;stroke-dashoffset:0;stroke-opacity:1;paint-order:markers fill stroke"
     d="m 8.2544746,15.221389 v -0.24494 l 0.028966,-0.0035 c 0.015931,-0.0019 0.076504,-0.007 0.1346058,-0.01117 0.3879382,-0.02814 0.8319402,-0.111052 1.2574574,-0.234822 1.1471002,-0.333656 2.3181722,-1.018059 3.4195992,-1.998497 0.08633,-0.07684 0.103754,-0.08961 0.112473,-0.08237 0.0087,0.0072 0.01576,0.0027 0.04479,-0.02878 0.05544,-0.06005 0.203431,-0.23965 0.296111,-0.359349 0.04715,-0.0609 0.0871,-0.109359 0.08878,-0.107685 0.007,0.007 -0.164703,0.231352 -0.291262,0.380699 -0.04705,0.05552 -0.09294,0.11009 -0.101976,0.121266 l -0.01643,0.02032 0.02383,0.02527 c 0.0131,0.0139 0.05699,0.06207 0.09753,0.107052 0.04054,0.04498 0.07663,0.08292 0.08022,0.0843 0.01957,0.0075 -0.01244,-0.03991 -0.08128,-0.12047 l -0.07758,-0.0908 0.01469,-0.02613 c 0.02105,-0.03746 0.156576,-0.213301 0.160991,-0.208887 0.0037,0.0037 0.120042,-0.154307 0.255924,-0.347617 0.213053,-0.303095 0.403258,-0.621874 0.569863,-0.955078 l 0.06901,-0.138014 h 0.490683 c 0.324013,0 0.490683,0.0023 0.490683,0.0068 0,0.01456 -0.120726,0.283887 -0.198375,0.442554 -0.199415,0.407483 -0.442772,0.813621 -0.704451,1.175656 -0.168081,0.232541 -0.389439,0.509809 -0.495984,0.621257 -0.05645,0.05905 -0.06262,0.06361 -0.07316,0.05407 -0.0063,-0.0057 -0.01305,-0.0089 -0.01494,-0.007 -0.0047,0.0047 -0.140179,-0.135192 -0.253975,-0.262388 -0.05198,-0.0581 -0.09712,-0.108554 -0.100315,-0.112115 -0.0036,-0.0041 -0.0086,-0.0037 -0.01317,8.92e-4 -0.0053,0.0053 0.04999,0.07056 0.194983,0.230303 0.111293,0.122615 0.199716,0.225171 0.196497,0.227901 -0.0032,0.0027 -0.04726,0.04179 -0.09786,0.0868 -0.989394,0.880008 -2.046111,1.552152 -3.09948,1.971483 l -0.07,0.02786 H 9.4231936 8.2544746 Z M 13.468322,12.90817 c 0,-0.0013 -0.0069,-0.0082 -0.01534,-0.01534 l -0.01534,-0.01298 0.01298,0.01533 c 0.0122,0.01441 0.01769,0.01844 0.01769,0.01298 z"
     id="path91"
     inkscape:connector-curvature="0" />
  <path
     style="opacity:0.91000001;fill:#000000;fill-opacity:1;stroke:#05030d;stroke-width:0;stroke-miterlimit:4;stroke-dasharray:none;stroke-dashoffset:0;stroke-opacity:1;paint-order:markers fill stroke"
     d="m 8.2544746,15.22128 v -0.245048 l 0.02215,-0.0034 c 0.012183,-0.0019 0.054353,-0.0052 0.093713,-0.0075 0.1154837,-0.0065 0.3671016,-0.03604 0.5213848,-0.06116 0.9689686,-0.157786 1.9158616,-0.53916 2.8727276,-1.15703 0.442159,-0.285512 0.905687,-0.64096 1.338074,-1.026078 0.08096,-0.07211 0.09575,-0.0827 0.10488,-0.07512 0.0091,0.0076 0.01547,0.0035 0.04441,-0.02858 0.06328,-0.07007 0.204821,-0.241601 0.293737,-0.355975 0.04879,-0.06276 0.0901,-0.112719 0.09181,-0.111018 0.0073,0.0073 -0.166741,0.234322 -0.297411,0.38793 -0.04747,0.0558 -0.09195,0.108732 -0.09884,0.117618 l -0.01253,0.01616 0.0629,0.06981 c 0.03459,0.03839 0.08185,0.08974 0.105004,0.114108 0.02316,0.02437 0.06635,0.0719 0.09598,0.10564 0.02963,0.03374 0.125796,0.140794 0.213699,0.237905 l 0.159823,0.176564 -0.01729,0.01427 c -0.0095,0.0078 -0.07674,0.0666 -0.149414,0.130556 -0.965475,0.849717 -1.99985,1.504092 -3.020302,1.910726 l -0.08701,0.03467 H 9.423219 8.2544746 Z m 5.5247544,-1.978504 c -0.03834,-0.03842 -0.103274,-0.106782 -0.144302,-0.151911 -0.04103,-0.04513 -0.0989,-0.108769 -0.128609,-0.141421 -0.02971,-0.03265 -0.05808,-0.05937 -0.06304,-0.05937 -0.005,0 -0.009,-0.0042 -0.009,-0.0093 0,-0.0051 -0.03667,-0.05315 -0.08148,-0.10681 l -0.08148,-0.09756 0.01162,-0.01989 c 0.01891,-0.03237 0.121744,-0.167541 0.156584,-0.205842 0.04723,-0.05192 0.270068,-0.364188 0.391701,-0.5489 0.171918,-0.261074 0.288992,-0.463081 0.431533,-0.744592 l 0.07851,-0.155052 h 0.490451 c 0.338286,0 0.490451,0.0022 0.490451,0.0072 0,0.02013 -0.128167,0.304651 -0.219355,0.48696 -0.291544,0.582876 -0.633154,1.104962 -1.05467,1.611862 -0.07269,0.08742 -0.183081,0.204465 -0.192834,0.204465 -0.0035,0 -0.03771,-0.03144 -0.07605,-0.06986 z"
     id="path93"
     inkscape:connector-curvature="0" />
  <path
     style="opacity:0.91000001;fill:#000000;fill-opacity:1;stroke:#05030d;stroke-width:0;stroke-miterlimit:4;stroke-dasharray:none;stroke-dashoffset:0;stroke-opacity:1;paint-order:markers fill stroke"
     d="m 8.2544746,15.22128 v -0.245048 l 0.02215,-0.0034 c 0.012183,-0.0019 0.051286,-0.0052 0.086898,-0.0074 0.035611,-0.0022 0.1107516,-0.0086 0.1669794,-0.0143 1.525,-0.153673 3.043731,-0.888378 4.524517,-2.188791 0.120607,-0.105915 0.143732,-0.123538 0.15253,-0.116236 0.0087,0.0073 0.01521,0.0033 0.0413,-0.02534 0.05429,-0.05958 0.192892,-0.227747 0.290588,-0.352586 0.05208,-0.06655 0.09609,-0.119593 0.0978,-0.117881 0.007,0.007 -0.161753,0.228504 -0.287495,0.377506 -0.04536,0.05375 -0.09123,0.108217 -0.101925,0.121026 l -0.01944,0.02329 0.06345,0.06981 c 0.0349,0.03839 0.08659,0.09442 0.114861,0.1245 0.02827,0.03008 0.09914,0.108289 0.157481,0.173795 0.05834,0.06551 0.150108,0.167881 0.203927,0.227499 l 0.09785,0.108397 -0.01657,0.01428 c -0.0091,0.0079 -0.07634,0.0667 -0.149403,0.130755 -0.973169,0.853305 -1.989811,1.497455 -3.009363,1.90675 l -0.09581,0.03846 H 9.4246414 8.2544746 Z m 5.5219514,-1.981266 c -0.04013,-0.03994 -0.07604,-0.07189 -0.07979,-0.07099 -0.0037,8.95e-4 -0.0047,-4.58e-4 -0.0022,-0.003 0.0039,-0.0039 -0.125831,-0.150535 -0.242799,-0.27456 -0.01662,-0.01763 -0.06416,-0.07317 -0.105642,-0.123432 l -0.07542,-0.09138 0.01351,-0.02289 c 0.01787,-0.03029 0.104834,-0.144872 0.160459,-0.211421 0.06565,-0.07854 0.236655,-0.316708 0.361171,-0.503012 0.173256,-0.259231 0.300002,-0.475926 0.451461,-0.771853 l 0.08459,-0.165276 h 0.490174 c 0.339747,0 0.490175,0.0022 0.490175,0.0072 0,0.02883 -0.169589,0.395772 -0.284892,0.616416 -0.270407,0.517455 -0.57004,0.969652 -0.955425,1.441902 -0.08623,0.105669 -0.214747,0.244931 -0.226029,0.244931 -0.0035,0 -0.03923,-0.03268 -0.07936,-0.07262 z"
     id="path95"
     inkscape:connector-curvature="0" />
  <path
     style="opacity:0.91000001;fill:#000000;fill-opacity:1;stroke:#05030d;stroke-width:0;stroke-miterlimit:4;stroke-dasharray:none;stroke-dashoffset:0;stroke-opacity:1;paint-order:markers fill stroke"
     d=""
     id="path97"
     inkscape:connector-curvature="0" />
  <path
     style="opacity:0.91000001;fill:#000000;fill-opacity:1;stroke:#05030d;stroke-width:0;stroke-miterlimit:4;stroke-dasharray:none;stroke-dashoffset:0;stroke-opacity:1;paint-order:markers fill stroke"
     d="m 13.325424,12.770503 -0.08374,-0.0924 0.01566,-0.01667 c 0.01775,-0.0189 0.02479,-0.01769 0.01403,0.0024 -0.0085,0.01582 -0.0064,0.01882 0.0833,0.122638 0.03338,0.03862 0.05929,0.0716 0.05759,0.07331 -0.0017,0.0017 -0.04078,-0.03848 -0.08684,-0.0893 z"
     id="path99"
     inkscape:connector-curvature="0" />
  <path
     style="opacity:0.91000001;fill:#000000;fill-opacity:1;stroke:#05030d;stroke-width:0;stroke-miterlimit:4;stroke-dasharray:none;stroke-dashoffset:0;stroke-opacity:1;paint-order:markers fill stroke"
     d="m 8.2544746,15.221101 v -0.245227 l 0.015335,-0.0032 c 0.00843,-0.0017 0.047538,-0.0051 0.086898,-0.0074 0.1723113,-0.01015 0.4468333,-0.04464 0.6542867,-0.08221 1.3502397,-0.244506 2.7051037,-0.951258 4.0100847,-2.091825 0.05577,-0.04875 0.118227,-0.103281 0.13879,-0.121191 0.03132,-0.02729 0.03906,-0.03117 0.04773,-0.02398 0.0087,0.0072 0.0147,0.0037 0.03776,-0.02196 0.05627,-0.06268 0.229341,-0.272591 0.307622,-0.373108 0.04456,-0.05721 0.0825,-0.10254 0.08431,-0.100726 0.0093,0.0093 -0.272942,0.370153 -0.395748,0.50605 l -0.0136,0.01505 0.101448,0.109855 c 0.0558,0.06042 0.118295,0.128789 0.138887,0.15193 0.02059,0.02314 0.118423,0.13201 0.217404,0.241931 0.175751,0.195175 0.179662,0.200147 0.167026,0.212333 -0.0071,0.0069 -0.06747,0.06015 -0.134125,0.118421 -0.990699,0.866102 -1.949937,1.478324 -2.982208,1.903359 l -0.138657,0.05709 H 9.4260952 8.2544746 Z"
     id="path101"
     inkscape:connector-curvature="0" />
  <path
     style="opacity:0.91000001;fill:#000000;fill-opacity:1;stroke:#05030d;stroke-width:0;stroke-miterlimit:4;stroke-dasharray:none;stroke-dashoffset:0;stroke-opacity:1;paint-order:markers fill stroke"
     d="m 8.2544746,15.221101 v -0.245227 l 0.015335,-0.003 c 0.00843,-0.0016 0.079741,-0.0079 0.1584601,-0.01391 0.4555074,-0.03486 0.9655637,-0.138123 1.4314994,-0.289801 1.0751399,-0.349997 2.1302119,-0.97675 3.1613089,-1.877939 0.05577,-0.04875 0.118227,-0.103281 0.13879,-0.121191 0.03139,-0.02734 0.03905,-0.03118 0.04777,-0.02395 0.0088,0.0073 0.01509,0.0033 0.04066,-0.02537 0.06435,-0.07222 0.205756,-0.243585 0.293783,-0.356033 0.05063,-0.06467 0.09352,-0.116122 0.0953,-0.114332 0.0089,0.0089 -0.219356,0.301969 -0.37551,0.482184 l -0.03378,0.03899 0.101373,0.109774 c 0.05575,0.06038 0.11822,0.128707 0.138812,0.151848 0.02059,0.02314 0.118423,0.13201 0.217404,0.241931 0.175751,0.195175 0.179662,0.200147 0.167026,0.212333 -0.0071,0.0069 -0.06814,0.06078 -0.135619,0.11981 -0.984634,0.861461 -1.950543,1.4778 -2.980714,1.90197 l -0.138657,0.05709 H 9.4260952 8.2544746 Z"
     id="path103"
     inkscape:connector-curvature="0" />
  <path
     style="opacity:0.91000001;fill:#000000;fill-opacity:1;stroke:#05030d;stroke-width:0;stroke-miterlimit:4;stroke-dasharray:none;stroke-dashoffset:0;stroke-opacity:1;paint-order:markers fill stroke"
     d="M 2.1456681,13.400645 C 1.8715892,13.104951 1.612399,12.776243 1.3812282,12.431175 1.2016458,12.163113 1.0621473,11.926607 0.90487213,11.623558 l -0.0359838,-0.06934 h 0.014872 0.014872 l 0.0308378,0.05957 c 0.11400137,0.22022 0.23174367,0.426616 0.34646857,0.607342 0.016958,0.02671 0.030833,0.05018 0.030833,0.05216 0,0.002 0.00176,0.0036 0.00391,0.0036 0.00215,0 0.00391,0.0026 0.00391,0.0059 0,0.0032 0.00132,0.0059 0.00293,0.0059 0.00161,2.4e-5 0.00629,0.0071 0.010394,0.01563 0.00411,0.0086 0.00894,0.01558 0.010742,0.01558 0.0018,0 0.00328,0.0026 0.00328,0.0059 0,0.0032 0.00176,0.0059 0.00391,0.0059 0.00215,0 0.00391,0.0026 0.00391,0.0059 0,0.0032 0.00176,0.0059 0.00391,0.0059 0.00215,0 0.00391,0.0026 0.00391,0.0059 0,0.0032 0.00176,0.0059 0.00391,0.0059 0.00215,0 0.00391,0.0026 0.00391,0.0059 0,0.0032 0.00176,0.0059 0.00391,0.0059 0.00215,0 0.00391,0.0026 0.00391,0.0059 0,0.0032 0.00186,0.0059 0.00414,0.0059 0.00228,0 0.00304,0.0018 0.00171,0.0039 -0.00134,0.0022 3.066e-4,0.005 0.00365,0.0063 0.00335,0.0013 0.0051,0.0039 0.00391,0.0059 -0.0012,0.0019 5.598e-4,0.0046 0.00391,0.0059 0.00335,0.0013 0.0051,0.0039 0.00391,0.0059 -0.0012,0.0019 5.598e-4,0.0046 0.00391,0.0059 0.00335,0.0013 0.0051,0.0039 0.00391,0.0059 -0.0012,0.0019 5.598e-4,0.0046 0.00391,0.0059 0.00335,0.0013 0.00525,0.0037 0.00423,0.0053 -0.00102,0.0017 0.00206,0.0072 0.00686,0.01241 0.00479,0.0052 0.00872,0.01053 0.00872,0.0119 0,0.003 0.076472,0.114324 0.1356907,0.197549 0.076684,0.107772 0.2631849,0.340722 0.2727831,0.340722 0.00225,0 0.00311,0.0016 0.0019,0.0036 -0.00121,0.002 0.00308,0.008 0.00954,0.01342 0.00645,0.0054 0.011729,0.01145 0.011729,0.01338 0,0.0019 0.00483,0.008 0.010742,0.0135 0.00591,0.0055 0.017773,0.01828 0.026367,0.02841 0.00859,0.01013 0.023738,0.02746 0.033654,0.03851 0.00992,0.01105 0.040659,0.04558 0.068318,0.07673 0.027659,0.03115 0.069644,0.07709 0.093299,0.102078 0.023656,0.02499 0.061208,0.06501 0.08345,0.08893 l 0.04044,0.04349 -0.01383,0.01531 -0.01383,0.01531 z"
     id="path105"
     inkscape:connector-curvature="0" />
  <path
     style="opacity:0.91000001;fill:#000000;fill-opacity:1;stroke:#05030d;stroke-width:0;stroke-miterlimit:4;stroke-dasharray:none;stroke-dashoffset:0;stroke-opacity:1;paint-order:markers fill stroke"
     d=""
     id="path107"
     inkscape:connector-curvature="0" />
  <path
     style="opacity:0.91000001;fill:#000000;fill-opacity:1;stroke:#05030d;stroke-width:0;stroke-miterlimit:4;stroke-dasharray:none;stroke-dashoffset:0;stroke-opacity:1;paint-order:markers fill stroke"
     d="m 2.190228,13.385938 c -0.025944,-0.02834 -0.028032,-0.03342 -0.0072,-0.01753 0.016119,0.01229 0.033072,0.01864 0.042131,0.01576 0.00897,-0.0028 0.2317667,-0.246548 0.3695466,-0.404214 0.1370824,-0.156868 0.1855049,-0.223918 0.1855049,-0.256865 v -0.01351 l 0.018965,0.01868 0.018965,0.01868 -0.034278,0.03743 c -0.018853,0.02059 -0.1526043,0.168386 -0.2972258,0.328445 -0.1446215,0.160059 -0.2649085,0.293071 -0.2673044,0.295583 -0.00327,0.0034 -0.010508,-0.0022 -0.029103,-0.02246 z"
     id="path109"
     inkscape:connector-curvature="0" />
  <path
     style="opacity:0.91000001;fill:#000000;fill-opacity:1;stroke:#05030d;stroke-width:0;stroke-miterlimit:4;stroke-dasharray:none;stroke-dashoffset:0;stroke-opacity:1;paint-order:markers fill stroke"
     d=""
     id="path111"
     inkscape:connector-curvature="0" />
  <path
     style="opacity:0.91000001;fill:#000000;fill-opacity:1;stroke:#05030d;stroke-width:0;stroke-miterlimit:4;stroke-dasharray:none;stroke-dashoffset:0;stroke-opacity:1;paint-order:markers fill stroke"
     d="M 2.203269,13.376196 C 2.1610214,13.354167 2.0692071,13.259637 1.9019291,13.065941 1.5894671,12.704133 1.2815431,12.255604 1.0303715,11.79641 0.9952399,11.732182 0.90442748,11.558653 0.90442748,11.55575 c 0,-8.4e-4 0.003364,-0.0015 0.007476,-0.0015 0.005775,0 0.0168569,0.01816 0.0487007,0.07982 0.28145892,0.544941 0.65082672,1.087094 1.04339342,1.531478 0.032248,0.03651 0.087637,0.09595 0.1230864,0.132104 l 0.064453,0.06573 0.012448,-0.0063 c 0.054748,-0.02767 0.4377759,-0.441283 0.5282378,-0.570422 0.010373,-0.01481 0.015955,-0.02703 0.015955,-0.03493 0,-0.02876 -0.049905,-0.110312 -0.1327946,-0.217016 -0.080143,-0.103168 -0.1726007,-0.227157 -0.1707608,-0.228997 9.646e-4,-9.64e-4 0.017346,0.01808 0.036404,0.04233 0.019058,0.02425 0.078661,0.09858 0.1324534,0.16518 0.1291806,0.159942 0.1560919,0.19396 0.1616351,0.204318 0.012177,0.02275 -0.040255,0.09646 -0.1907728,0.268182 -0.094799,0.108153 -0.3331075,0.371871 -0.3504816,0.387851 -0.011306,0.0104 -0.015081,0.01073 -0.030591,0.0026 z"
     id="path113"
     inkscape:connector-curvature="0" />
  <path
     style="opacity:0.91000001;fill:#000000;fill-opacity:1;stroke:#05030d;stroke-width:0;stroke-miterlimit:4;stroke-dasharray:none;stroke-dashoffset:0;stroke-opacity:1;paint-order:markers fill stroke"
     d=""
     id="path115"
     inkscape:connector-curvature="0" />
  <path
     style="opacity:0.91000001;fill:#000000;fill-opacity:1;stroke:#05030d;stroke-width:0;stroke-miterlimit:4;stroke-dasharray:none;stroke-dashoffset:0;stroke-opacity:1;paint-order:markers fill stroke"
     d="M 2.7772585,12.627782 C 2.5620485,12.357168 2.5156879,12.298074 2.4519048,12.213066 2.3429902,12.067907 2.2590086,11.947938 2.1561322,11.79055 2.1042672,11.7112 2.0098962,11.560017 2.0098962,11.556274 c 0,-0.0011 0.00747,-0.002 0.016602,-0.002 0.015429,2.8e-5 0.017267,0.0012 0.026028,0.0166 0.05553,0.09762 0.2292874,0.362618 0.3323064,0.506806 0.1553052,0.217368 0.4536536,0.600888 0.4995523,0.642162 0.00814,0.0073 0.00842,0.0072 0.026243,-0.0066 0.00991,-0.0077 0.019246,-0.01456 0.020746,-0.01521 0.00347,-0.0015 0.074174,-0.08426 0.1737898,-0.20345 0.042707,-0.0511 0.078465,-0.09209 0.079463,-0.09109 9.977e-4,9.97e-4 -0.0077,0.0138 -0.019339,0.02845 -0.032748,0.04124 -0.1316942,0.173905 -0.1997672,0.267848 -0.03386,0.04673 -0.061995,0.08496 -0.062521,0.08496 -5.262e-4,0 -0.05711,-0.07061 -0.1257408,-0.156909 z"
     id="path117"
     inkscape:connector-curvature="0" />
  <path
     style="opacity:0.91000001;fill:#000000;fill-opacity:1;stroke:#05030d;stroke-width:0;stroke-miterlimit:4;stroke-dasharray:none;stroke-dashoffset:0;stroke-opacity:1;paint-order:markers fill stroke"
     d="m 2.8313569,12.656761 c -0.071239,-0.08544 -0.1156235,-0.141709 -0.1134796,-0.143853 9.459e-4,-9.46e-4 0.019391,0.01809 0.040989,0.0423 0.067514,0.07568 0.1431985,0.143364 0.1606395,0.14365 0.00845,1.38e-4 -0.01848,0.02308 -0.027267,0.02323 -0.00349,5.8e-5 -0.030845,-0.0293 -0.060881,-0.06532 z"
     id="path121"
     inkscape:connector-curvature="0" />
  <path
     style="opacity:0.91000001;fill:#000000;fill-opacity:1;stroke:#05030d;stroke-width:0;stroke-miterlimit:4;stroke-dasharray:none;stroke-dashoffset:0;stroke-opacity:1;paint-order:markers fill stroke"
     d=""
     id="path123"
     inkscape:connector-curvature="0" />
  <path
     style="opacity:0.91000001;fill:#000000;fill-opacity:1;stroke:#05030d;stroke-width:0;stroke-miterlimit:4;stroke-dasharray:none;stroke-dashoffset:0;stroke-opacity:1;paint-order:markers fill stroke"
     d="M 2.9082385,12.691178 C 2.8871761,12.679961 2.8326935,12.630747 2.7865201,12.58123 2.6110575,12.393061 2.3367918,12.021161 2.132838,11.694847 c -0.0402,-0.06432 -0.083879,-0.136621 -0.083879,-0.138849 0,-9.76e-4 0.4265056,-0.0018 0.9477901,-0.0018 h 0.9477901 l -0.081579,0.08307 C 3.6257189,11.87885 3.4816131,12.040155 3.1641893,12.419457 2.9515847,12.673506 2.931911,12.696506 2.926231,12.697655 c -0.00232,4.7e-4 -0.010421,-0.0024 -0.017993,-0.0065 z"
     id="path125"
     inkscape:connector-curvature="0" />
  <path
     style="opacity:0.91000001;fill:#000000;fill-opacity:1;stroke:#05030d;stroke-width:0;stroke-miterlimit:4;stroke-dasharray:none;stroke-dashoffset:0;stroke-opacity:1;paint-order:markers fill stroke"
     d="M 2.8043057,12.682173 C 2.509947,12.355771 2.2412873,11.994369 2.0144466,11.619652 l -0.039609,-0.06543 h 0.014664 c 0.013705,0 0.015534,0.0015 0.027968,0.02246 0.037307,0.06298 0.1179529,0.189888 0.1787507,0.281288 0.1403854,0.211048 0.2571086,0.368307 0.4995342,0.673014 0.087295,0.109721 0.1579373,0.200275 0.1569825,0.20123 -9.548e-4,9.55e-4 -0.022749,-0.02156 -0.048431,-0.05004 z"
     id="path127"
     inkscape:connector-curvature="0" />
  <path
     style="opacity:0.91000001;fill:#000000;fill-opacity:1;stroke:#05030d;stroke-width:0;stroke-miterlimit:4;stroke-dasharray:none;stroke-dashoffset:0;stroke-opacity:1;paint-order:markers fill stroke"
     d="m 2.834115,12.751488 c -0.00505,-0.0054 -0.011113,-0.0098 -0.013484,-0.0098 -0.02157,0 -0.3207559,-0.366072 -0.4980349,-0.609375 -0.065593,-0.09002 -0.1704359,-0.245129 -0.1676054,-0.247959 0.00109,-0.0011 0.016687,0.01954 0.034657,0.04584 0.1814373,0.265578 0.439389,0.592646 0.6243885,0.791689 0.020109,0.02163 0.034918,0.03934 0.032908,0.03934 -0.00201,0 -0.00778,-0.0044 -0.012829,-0.0098 z"
     id="path129"
     inkscape:connector-curvature="0" />
  <path
     style="opacity:0.91000001;fill:#000000;fill-opacity:1;stroke:#05030d;stroke-width:0;stroke-miterlimit:4;stroke-dasharray:none;stroke-dashoffset:0;stroke-opacity:1;paint-order:markers fill stroke"
     d="M 2.8528752,12.648177 C 2.8161957,12.616527 2.6922701,12.4711 2.5774847,12.325007 2.2899482,11.959042 2.3013024,11.974581 2.2521477,11.879784 2.2279142,11.833049 2.1857267,11.769315 2.1583977,11.738152 2.0744564,11.642436 1.6983749,10.891268 1.5525861,10.528132 1.4007289,10.14988 1.2768866,9.7475784 1.2014618,9.3875065 1.1357179,9.0736497 1.1010408,8.1025125 1.1294884,7.3718815 1.150046,6.8438928 1.1644515,6.7314062 1.259554,6.3562565 1.6293344,4.8975878 2.4180941,3.6446262 3.5774585,2.674216 4.7579732,1.6861025 6.3868472,1.0750065 7.840146,1.0750065 c 0.4627906,0 1.0939368,0.048928 1.4404375,0.1116671 0.7386155,0.1337364 1.6686285,0.4967996 2.3660595,0.9236746 0.673862,0.4124489 1.619576,1.3237374 2.094962,2.0187027 1.190273,1.740055 1.509442,3.9898578 0.849454,5.9877481 -0.156347,0.473286 -0.579268,1.336763 -0.867273,1.770708 -0.239295,0.360551 -0.567632,0.765625 -0.620587,0.765625 -0.01857,0 -0.137422,-0.114076 -0.264124,-0.253502 -0.126702,-0.139426 -0.47,-0.484902 -0.762885,-0.767725 -0.605653,-0.584847 -0.989467,-0.862669 -1.333207,-0.96504 -0.11682,-0.03479 -0.2124,-0.07369 -0.2124,-0.08644 0,-0.03756 -0.175872,-0.130414 -0.247009,-0.130414 -0.03602,0 -0.06549,-0.0129 -0.06549,-0.02867 0,-0.03697 -0.276178,-0.143073 -0.3028892,-0.116361 -0.011135,0.01113 -0.054199,-0.002 -0.095696,-0.02919 -0.1539684,-0.100884 -0.8022969,-0.244704 -1.0121897,-0.224536 -0.08229,0.0079 -0.1426697,0.0031 -0.1341775,-0.01061 0.029035,-0.04698 -0.1893934,-0.063002 -0.6737968,-0.049425 -0.9264607,0.025969 -1.5630988,0.129766 -2.026101,0.330335 -0.1145509,0.04962 -0.2434303,0.100465 -0.286399,0.112982 -0.164375,0.04788 -0.625,0.304803 -0.625,0.348601 0,0.02506 -0.01358,0.03716 -0.030178,0.0269 -0.041782,-0.02582 -0.2746646,0.0973 -0.319335,0.168828 -0.020145,0.03226 -0.056053,0.05119 -0.079796,0.04208 -0.025853,-0.0099 -0.049924,0.0093 -0.060009,0.04783 -0.00926,0.03542 -0.03392,0.05784 -0.054795,0.04983 -0.020875,-0.008 -0.063856,0.01406 -0.095514,0.04904 -0.031657,0.03498 -0.072806,0.0636 -0.091441,0.0636 -0.018635,0 -0.06919,0.03384 -0.1123443,0.0752 -0.043154,0.04136 -0.1747501,0.164408 -0.2924352,0.273436 -0.1176852,0.109029 -0.3567477,0.365774 -0.53125,0.570546 -0.1745024,0.204772 -0.3528031,0.41348 -0.3962238,0.463795 -0.077514,0.08982 -0.080157,0.09044 -0.1456365,0.03394 z M 8.4055835,7.9535818 c 0,-0.012252 0.049412,-0.016507 0.1098053,-0.00946 0.1052128,0.012283 0.2172381,-0.039055 0.1881003,-0.086202 -0.00765,-0.012375 0.025943,-0.022501 0.074649,-0.022501 0.1062613,0 0.3797838,-0.1532038 0.369266,-0.2068309 -0.00409,-0.020879 0.017164,-0.036008 0.047242,-0.03362 0.030078,0.00239 0.054688,-0.014531 0.054688,-0.037596 0,-0.023065 0.049219,-0.065292 0.109375,-0.093838 0.060156,-0.028546 0.109375,-0.068299 0.109375,-0.08834 0,-0.020041 0.047728,-0.081456 0.1060621,-0.1364785 0.1307966,-0.1233703 0.2797569,-0.371694 0.2576007,-0.4294318 -0.00903,-0.023535 0.014434,-0.082017 0.052146,-0.1299594 0.048399,-0.061529 0.068566,-0.1301744 0.068566,-0.2333853 0,-0.08042 0.00865,-0.1408703 0.019226,-0.134335 C 9.9989613,6.328465 9.9980185,5.628479 9.9707128,5.5906315 9.9583131,5.573444 9.9455241,5.5176775 9.9422925,5.4667059 9.9345447,5.3444947 9.7909531,5.041524 9.62681,4.8010544 9.4880153,4.5977197 9.1782266,4.3256331 9.0850635,4.3252387 9.0548716,4.3251137 8.9996806,4.2899415 8.9624166,4.2470844 8.8776735,4.1496212 8.5964925,4.0421711 8.4167475,4.0385632 c -0.07489,-0.0015 -0.136164,-0.013053 -0.136164,-0.025667 0,-0.040954 -0.2930885,-0.058574 -0.4375,-0.026303 -0.077344,0.017284 -0.1828125,0.034525 -0.234375,0.038314 -0.051562,0.00379 -0.1148438,0.015916 -0.140625,0.026951 -0.025781,0.011035 -0.1044075,0.03476 -0.174725,0.052724 -0.070317,0.017963 -0.1522116,0.059581 -0.1819872,0.092483 -0.029776,0.032901 -0.091293,0.069146 -0.1367047,0.080544 -0.1146281,0.02877 -0.3549585,0.2107372 -0.508941,0.3853478 -0.07102,0.080534 -0.1984843,0.2871938 -0.2832537,0.4592441 -0.12869,0.2611931 -0.1601444,0.3605 -0.1905944,0.6017384 -0.040422,0.3202441 -0.00284,0.7144553 0.084866,0.8902735 0.026175,0.052468 0.04759,0.1170275 0.04759,0.1434653 0,0.095688 0.2604921,0.4834906 0.4483909,0.6675337 0.1655066,0.1621103 0.5037375,0.3939897 0.5516091,0.3781644 0.00859,-0.00284 0.040226,0.017098 0.070293,0.044309 0.1004044,0.090865 0.3382356,0.1301841 0.7812691,0.1291629 0.2363281,-5.438e-4 0.4296875,-0.011014 0.4296875,-0.023265 z"
     id="path131"
     inkscape:connector-curvature="0" />
  <path
     style="opacity:0.91000001;fill:#000000;fill-opacity:1;stroke:#05030d;stroke-width:0;stroke-miterlimit:4;stroke-dasharray:none;stroke-dashoffset:0;stroke-opacity:1;paint-order:markers fill stroke"
     d="M 2.8493464,12.645319 C 2.8146078,12.615241 2.6919539,12.472318 2.5767821,12.327714 1.9490529,11.539564 1.411479,10.391586 1.1996731,9.3869268 1.1340776,9.0757878 1.1020252,7.4346669 1.1522134,6.9569294 1.2391118,6.1297497 1.6387917,5.07228 2.174928,4.25104 3.290077,2.542883 5.120036,1.3832283 7.1125703,1.1220299 c 0.5899653,-0.077338 1.5424122,-0.048863 2.1680132,0.064816 0.7377405,0.1340557 1.6670715,0.4966726 2.3667155,0.923472 0.471004,0.2873227 1.175454,0.9114014 1.688087,1.4954888 0.792696,0.9031892 1.34577,2.1637317 1.542708,3.5160751 0.06062,0.4162391 0.05262,1.4198207 -0.0148,1.8563697 -0.179154,1.1601485 -0.715889,2.3997425 -1.442354,3.3311305 -0.331786,0.425377 -0.216328,0.462145 -0.986877,-0.314273 -0.901951,-0.90882 -1.294135,-1.211482 -1.73942,-1.342373 -0.09023,-0.02652 -0.164063,-0.05886 -0.164063,-0.07187 0,-0.03792 -0.17544,-0.130864 -0.247009,-0.130864 -0.03602,0 -0.06549,-0.0129 -0.06549,-0.02867 0,-0.03697 -0.276178,-0.143073 -0.3028892,-0.116361 -0.011135,0.01113 -0.051012,9.3e-5 -0.088615,-0.02455 C 9.6931603,10.19301 9.1492066,10.064635 8.9008694,10.061958 8.7693706,10.060542 8.6678081,10.049545 8.6751753,10.037523 8.7031125,9.9919337 8.4528131,9.9751443 7.9921794,9.9917097 7.1387925,10.022399 6.5776922,10.103203 6.1555835,10.256197 c -0.60214,0.218248 -0.9307057,0.371675 -1.0487579,0.489726 -0.03985,0.03985 -0.078975,0.06593 -0.086945,0.05796 -0.019289,-0.01929 -0.2606303,0.104792 -0.2870874,0.1476 -0.011429,0.01849 -0.054571,0.04647 -0.09587,0.06217 -0.041299,0.0157 -0.075089,0.05082 -0.075089,0.07804 0,0.02722 -0.014228,0.0407 -0.031618,0.02995 -0.032991,-0.02039 -0.091578,0.01986 -0.414515,0.284774 -0.204963,0.168137 -0.5759427,0.563482 -0.9572675,1.020141 -0.125581,0.150391 -0.2322883,0.273438 -0.2371272,0.273438 -0.00484,0 -0.037221,-0.02461 -0.071959,-0.05469 z M 8.4960841,7.9527422 c 0.097496,-0.013848 0.1844815,-0.045636 0.206215,-0.075358 0.020674,-0.028273 0.04499,-0.044005 0.054036,-0.034959 0.033389,0.033389 0.2768916,-0.089663 0.3504719,-0.1771082 0.041795,-0.049671 0.090962,-0.09031 0.1092588,-0.09031 0.018297,0 0.033268,-0.013403 0.033268,-0.029784 0,-0.016381 0.049219,-0.05314 0.109375,-0.081686 0.060156,-0.028546 0.109375,-0.068763 0.109375,-0.08937 0,-0.020607 0.042765,-0.078439 0.095033,-0.1285147 0.1325234,-0.1269656 0.2799675,-0.3651003 0.2799675,-0.4521716 0,-0.040111 0.024609,-0.1001215 0.054688,-0.1333575 0.036405,-0.040227 0.054688,-0.1115672 0.054688,-0.2133981 0,-0.084133 0.00908,-0.1529691 0.020176,-0.1529691 0.030003,0 0.00651,-0.6470953 -0.030194,-0.8318034 C 9.8591272,5.0427362 9.4362316,4.4754653 9.1033263,4.3363687 9.0380994,4.3091153 8.9668022,4.2612184 8.9448878,4.2299309 8.8903653,4.1520892 8.5885972,4.0437565 8.4262863,4.0437565 c -0.073262,0 -0.1483891,-0.015186 -0.1669503,-0.033747 C 8.22748,3.978153 7.9032731,3.9851111 7.6243335,4.0236374 7.4350825,4.0497762 7.1828516,4.1314234 7.1224313,4.1861031 7.0904666,4.2150309 6.9941631,4.2712 6.9084238,4.3109234 6.4884941,4.50548 6.0659791,5.1569222 5.9940788,5.7206797 c -0.040529,0.317784 -0.00293,0.721945 0.083219,0.8946447 0.025869,0.051856 0.047035,0.1184446 0.047035,0.1479737 0,0.098061 0.2989175,0.511955 0.5156875,0.7140438 0.1175256,0.1095659 0.2810296,0.2304128 0.3633428,0.2685487 0.082313,0.038136 0.1718118,0.087723 0.1988868,0.1101934 0.1286644,0.1067819 0.8455232,0.1603363 1.2938342,0.096658 z"
     id="path133"
     inkscape:connector-curvature="0" />
  <path
     style="opacity:0.91000001;fill:#000000;fill-opacity:1;stroke:#05030d;stroke-width:0;stroke-miterlimit:4;stroke-dasharray:none;stroke-dashoffset:0;stroke-opacity:1;paint-order:markers fill stroke"
     d="M 2.8493464,12.645319 C 2.7600427,12.567996 2.4044245,12.117062 2.2475627,11.882239 1.8818784,11.334809 1.4614818,10.395783 1.2810988,9.7234809 1.1451835,9.2169128 1.1148765,8.8096081 1.1320295,7.7200937 l 0.01483,-0.9419622 0.1098211,-0.421875 C 1.6414287,4.8782559 2.419972,3.6430544 3.5774585,2.674216 4.330141,2.0442061 5.3473569,1.5241554 6.3076922,1.2783866 6.9510366,1.1137421 7.154046,1.090779 7.9524585,1.0923415 c 0.811244,0.00159 1.1969746,0.042889 1.7552506,0.1879417 0.7421079,0.1928158 1.7475089,0.6624042 2.2975599,1.073112 0.379521,0.283377 1.159946,1.0296024 1.437093,1.3741158 1.246647,1.5496718 1.753023,3.6553268 1.352498,5.6240749 -0.148112,0.7280341 -0.465005,1.5242081 -0.902621,2.2677811 -0.181542,0.308465 -0.579189,0.855633 -0.71064,0.977849 l -0.07431,0.06909 -0.733668,-0.725899 c -0.909634,-0.900002 -1.249089,-1.160181 -1.68104,-1.288457 -0.08346,-0.02479 -0.17661,-0.07253 -0.206993,-0.106106 -0.03038,-0.03357 -0.09893,-0.07064 -0.152328,-0.08236 -0.0534,-0.01173 -0.132799,-0.04736 -0.176447,-0.07917 -0.04365,-0.03182 -0.130315,-0.06392 -0.1925939,-0.07135 -0.062279,-0.0074 -0.1536853,-0.03424 -0.203125,-0.05958 -0.1438847,-0.07376 -0.6345178,-0.186302 -0.8560066,-0.196352 -0.1119887,-0.0051 -0.2429825,-0.02421 -0.2910969,-0.0425 -0.098504,-0.037451 -0.8646543,-0.046155 -0.8646762,-0.0098 -7.8e-6,0.01289 -0.1429047,0.0266 -0.3175484,0.03046 -0.353365,0.0078 -0.7770238,0.07248 -1.0965772,0.16738 -0.5161972,0.1533 -1.2248144,0.47854 -1.2637638,0.580041 -0.00971,0.02531 -0.036458,0.03881 -0.059433,0.03 -0.022974,-0.0088 -0.1139784,0.03256 -0.2022325,0.09195 -0.088254,0.05939 -0.1721637,0.107983 -0.1864659,0.107983 -0.014302,0 -0.034995,0.02833 -0.045985,0.06295 -0.010989,0.03463 -0.032342,0.05531 -0.04745,0.04598 -0.085491,-0.05284 -0.7297647,0.550901 -1.2781408,1.197724 -0.1775847,0.209465 -0.3265566,0.380846 -0.3310486,0.380846 -0.00449,0 -0.03659,-0.02461 -0.071328,-0.05469 z M 8.4167238,7.9544897 C 8.5928675,7.9384765 8.6732091,7.9171675 8.7010635,7.879074 8.7224172,7.8498712 8.7474994,7.833589 8.7568019,7.8428915 8.7862953,7.872385 9.0608,7.7268034 9.121715,7.6493628 c 0.032168,-0.040896 0.067012,-0.074356 0.077428,-0.074356 0.05153,0 0.3977646,-0.346769 0.5211581,-0.5219621 C 9.7711788,6.980809 9.8215485,6.8753403 9.8322341,6.8186694 9.8429197,6.7619987 9.872751,6.6913034 9.898526,6.6615687 9.94854,6.6038715 9.9713016,6.4006569 9.9729766,5.9968815 9.9750797,5.4899906 9.9128606,5.2518156 9.6893835,4.9112747 9.521025,4.6547256 9.2685947,4.4054222 9.110155,4.3392219 9.0515219,4.3147234 8.9678303,4.2615762 8.9241744,4.2211172 8.8295344,4.1334079 8.568745,4.0437565 8.408245,4.0437565 c -0.063339,0 -0.1303925,-0.015231 -0.1490081,-0.033847 C 8.1860388,3.9367119 7.4649522,4.0276983 7.2338966,4.1392869 6.6622572,4.4153612 6.4642253,4.5982356 6.206191,5.0883325 6.0607791,5.36452 6.0089069,5.5415906 5.9841663,5.8462353 c -0.02109,0.2596906 0.025493,0.5799872 0.1264412,0.8693962 0.1297213,0.3718969 0.5549463,0.8575753 0.9095641,1.0388753 0.092651,0.047369 0.2043947,0.1050382 0.2483178,0.1281544 0.1684516,0.088654 0.6392184,0.1181035 1.1482344,0.071828 z"
     id="path135"
     inkscape:connector-curvature="0" />
  <path
     style="opacity:0.91000001;fill:#000000;fill-opacity:1;stroke:#05030d;stroke-width:0;stroke-miterlimit:4;stroke-dasharray:none;stroke-dashoffset:0;stroke-opacity:1;paint-order:markers fill stroke"
     d="M 2.6396718,12.410944 C 2.3199936,12.022285 2.154516,11.76666 1.8861197,11.246882 1.4653003,10.431919 1.2162362,9.6763106 1.1521748,9.0202453 1.1305486,8.7987672 1.1231359,8.2982028 1.1326948,7.7047997 1.1479048,6.7605728 1.1494849,6.741745 1.2432446,6.3875065 1.4975785,5.4265937 1.8812488,4.6155478 2.4318592,3.8748779 2.7140529,3.4952768 3.2908625,2.8976984 3.6555835,2.6070919 4.576455,1.8733494 5.7177016,1.3545951 6.8587085,1.1511093 c 0.6277353,-0.1119495 1.8402884,-0.086704 2.53125,0.052701 0.4688721,0.094597 1.0993865,0.3163442 1.6326405,0.574187 0.556034,0.2688572 0.884022,0.4757121 1.273609,0.8032367 0.367735,0.3091533 1.078987,1.040818 1.300207,1.3375229 1.302904,1.7474797 1.683941,4.1241282 0.993703,6.1980421 -0.140821,0.423114 -0.470505,1.13026 -0.717897,1.539829 -0.179905,0.297843 -0.572638,0.833796 -0.688883,0.940104 l -0.07501,0.0686 -0.721571,-0.711091 c -0.901625,-0.888531 -1.220568,-1.136682 -1.651542,-1.284972 -0.08676,-0.02985 -0.21245,-0.0914 -0.279302,-0.136771 -0.06685,-0.04537 -0.145989,-0.08249 -0.175861,-0.08249 -0.02987,0 -0.07151,-0.02072 -0.09253,-0.04605 -0.02102,-0.02533 -0.08954,-0.05483 -0.152264,-0.06557 -0.062726,-0.01074 -0.1984225,-0.05233 -0.3015475,-0.09242 -0.2189888,-0.08513 -0.7979407,-0.208692 -0.9359047,-0.199741 -0.05244,0.0034 -0.1234703,-0.0063 -0.1578453,-0.02158 -0.06993,-0.031065 -0.6798438,-0.032305 -1.15625,-0.0023 -0.6133325,0.03856 -1.0514769,0.129185 -1.5505172,0.32069 -0.3962369,0.152055 -0.7826382,0.346264 -0.8418122,0.423102 -0.026719,0.03469 -0.085305,0.06711 -0.1301922,0.07204 -0.087768,0.0096 -0.3993534,0.22235 -0.3993534,0.272633 0,0.01674 -0.013007,0.02239 -0.028905,0.01257 -0.0398,-0.0246 -0.4724862,0.325333 -0.7314724,0.591571 -0.1174264,0.120714 -0.3610913,0.391745 -0.5414776,0.602292 -0.1803863,0.210547 -0.3402542,0.382813 -0.3552618,0.382813 -0.015008,0 -0.1342779,-0.130079 -0.2650449,-0.289063 z M 8.4029466,7.95222 c 0.1854972,-0.017707 0.2739881,-0.040148 0.30032,-0.076159 0.020533,-0.02808 0.060951,-0.051055 0.089819,-0.051055 0.083869,0 0.2948337,-0.1194603 0.3313021,-0.1876022 0.018367,-0.034319 0.046962,-0.062398 0.063545,-0.062398 0.1285588,0 0.6551507,-0.6381678 0.6551507,-0.7939659 0,-0.028591 0.02264,-0.086536 0.050311,-0.1287672 0.027671,-0.042232 0.042175,-0.097987 0.032231,-0.1239006 -0.00994,-0.025914 -0.00442,-0.047116 0.012266,-0.047116 0.018844,0 0.026313,-0.1984018 0.019705,-0.5234375 C 9.9483488,5.5029444 9.9377944,5.4119509 9.8770191,5.2631365 9.7236125,4.887505 9.3512463,4.4399562 9.1073266,4.3380403 9.0471381,4.3128919 8.9717063,4.2661294 8.9397006,4.2341237 8.8595947,4.1540178 8.5531735,4.0437565 8.4106613,4.0437565 c -0.064668,0 -0.1332388,-0.015661 -0.1523797,-0.034802 C 8.1868125,3.9374857 7.460371,4.0299107 7.2338966,4.1392869 6.6697603,4.4117375 6.4312541,4.6360244 6.1964841,5.1148503 6.0321781,5.4499609 5.98624,5.649339 5.9884678,6.017669 c 0.00451,0.7455482 0.4300085,1.4231569 1.116691,1.7783353 0.334655,0.1730963 0.682419,0.2149569 1.2977878,0.1562157 z"
     id="path137"
     inkscape:connector-curvature="0" />
  <path
     style="opacity:0.91000001;fill:#000000;fill-opacity:1;stroke:#05030d;stroke-width:0;stroke-miterlimit:4;stroke-dasharray:none;stroke-dashoffset:0;stroke-opacity:1;paint-order:markers fill stroke"
     d="M 2.7290918,12.520319 C 2.3165923,12.040927 2.1354257,11.758053 1.7955095,11.062622 1.5156539,10.490068 1.3239239,9.965595 1.2113626,9.4647022 1.145619,9.1721459 1.1413037,9.0806612 1.1406522,7.9656315 1.1399811,6.8168225 1.142387,6.7684587 1.214494,6.4812565 1.3887421,5.7872259 1.6788888,5.0665522 2.0117995,4.5008887 2.510817,3.6529855 3.3245363,2.7923801 4.1399585,2.2501059 4.9156663,1.7342426 5.7766475,1.3744238 6.6911525,1.1839183 7.398755,1.0365136 8.6104213,1.0451577 9.388661,1.2031624 c 0.780054,0.1583731 1.811168,0.5912685 2.463497,1.0342564 0.442608,0.3005698 1.371376,1.1864139 1.713661,1.6344627 0.920269,1.2046294 1.423463,2.8229554 1.360337,4.375 -0.04258,1.046806 -0.233567,1.7822565 -0.723065,2.7843115 -0.275849,0.564692 -0.65493,1.161193 -0.931009,1.464985 l -0.165976,0.182635 -0.444589,-0.453858 c -0.873991,-0.892212 -1.474066,-1.391676 -1.816029,-1.511547 -0.148574,-0.05208 -0.243842,-0.09559 -0.45553,-0.208036 -0.273954,-0.145523 -0.355063,-0.180365 -0.4198686,-0.180365 -0.037185,0 -0.1078728,-0.02082 -0.1570834,-0.04627 -0.1438579,-0.07439 -0.6868113,-0.205004 -0.9074225,-0.218289 -0.1117188,-0.0067 -0.2271529,-0.02155 -0.2565204,-0.03294 -0.1517659,-0.058844 -1.3059884,-0.0168 -1.8059796,0.06578 -0.5397816,0.08916 -1.5700897,0.483296 -1.7399325,0.665601 -0.034794,0.03735 -0.092105,0.07346 -0.1273585,0.08025 -0.098114,0.01889 -0.2364493,0.0974 -0.3431959,0.194766 -0.053044,0.04838 -0.1152447,0.09265 -0.1382231,0.09836 -0.1302519,0.0324 -0.7701528,0.645138 -1.2211364,1.169293 -0.188549,0.219141 -0.353327,0.398438 -0.3661735,0.398438 -0.012846,0 -0.092934,-0.08086 -0.1779718,-0.179688 z M 8.3734481,7.9509437 c 0.2062869,-0.019946 0.3067729,-0.043366 0.3315704,-0.077278 0.019569,-0.026763 0.062155,-0.048731 0.094635,-0.048819 0.1001184,-2.812e-4 0.245575,-0.1055175 0.647619,-0.46859 0.1719994,-0.1553265 0.395811,-0.476754 0.395811,-0.5684443 0,-0.032315 0.020476,-0.090006 0.045504,-0.1282019 0.055125,-0.084132 0.053971,-0.069692 0.056971,-0.7129888 l 0.00242,-0.51901 L 9.8355678,5.1909109 C 9.6376863,4.7742287 9.3444456,4.4395015 9.0852697,4.3344637 9.0208166,4.3083422 8.9680822,4.2736569 8.9680822,4.2573847 c 0,-0.086201 -0.4644269,-0.2242415 -0.890625,-0.2647186 C 7.9055625,3.9763409 7.3649297,4.0740234 7.2255016,4.146599 7.1784522,4.1710894 7.0626135,4.2313669 6.9680822,4.2805487 6.7077206,4.4160081 6.3810181,4.7601312 6.2246222,5.0636519 6.0329722,5.4355912 5.9926,5.626429 6.008831,6.0836875 c 0.011342,0.319515 0.027367,0.4176987 0.098042,0.600694 0.097042,0.2512647 0.2454703,0.4966794 0.3407647,0.563426 0.036081,0.025272 0.05281,0.045949 0.037177,0.045949 -0.050552,0 0.1499759,0.1902454 0.3426431,0.3250732 0.4708497,0.3294987 0.8129572,0.4029912 1.5459903,0.332114 z"
     id="path139"
     inkscape:connector-curvature="0" />
  <path
     style="opacity:0.91000001;fill:#ffffff;fill-opacity:1;stroke:#05030d;stroke-width:0;stroke-miterlimit:4;stroke-dasharray:none;stroke-dashoffset:0;stroke-opacity:1;paint-order:markers fill stroke"
     d="M 7.5930835,7.9029043 C 7.0244173,7.7642893 6.5259022,7.358404 6.2457791,6.8059439 L 6.1098593,6.5378823 6.0980337,6.1072744 C 6.085338,5.6449832 6.1132607,5.4456132 6.2235695,5.2109413 6.3863015,4.8647439 6.7987892,4.4545842 7.1997765,4.2402439 l 0.221432,-0.1183624 h 0.5625 0.5625 l 0.28125,0.1393678 C 9.33686,4.5136729 9.7589163,5.0234489 9.8763416,5.5281315 9.9314991,5.7651922 9.9248028,6.2761094 9.8634869,6.5089784 9.7338272,7.0014054 9.3253028,7.4887128 8.8426961,7.7266265 8.4181044,7.93594 7.981364,7.9975493 7.5930835,7.9029043 Z"
     id="path141"
     inkscape:connector-curvature="0" />
  <path
     style="opacity:0.91000001;fill:#f9f9f9;fill-opacity:1;stroke:#05030d;stroke-width:0;stroke-miterlimit:4;stroke-dasharray:none;stroke-dashoffset:0;stroke-opacity:1;paint-order:markers fill stroke"
     d="M 7.1555835,14.917761 C 6.3415063,14.805825 5.4450323,14.498819 4.677118,14.068988 4.152395,13.775281 3.3757213,13.225417 3.040472,12.910286 l -0.099486,-0.09352 0.307795,-0.381704 c 0.8477146,-1.051269 1.7380921,-1.677274 2.9719885,-2.089538 0.4719075,-0.157672 0.6924553,-0.203012 1.1616134,-0.238802 1.0338616,-0.07887 1.6891428,-0.01041 2.4792088,0.259023 0.8704673,0.296847 1.5710143,0.717256 2.1965863,1.318204 0.372219,0.357568 0.95218,1.035998 0.931562,1.089728 -0.02859,0.0745 -0.686125,0.583783 -1.162282,0.900224 -0.852169,0.566329 -1.808105,0.979628 -2.7031241,1.168698 -0.3400641,0.07184 -0.4796122,0.08385 -1.078125,0.0928 -0.378125,0.0057 -0.7789063,-0.0023 -0.890625,-0.01764 z"
     id="path143"
     inkscape:connector-curvature="0" />
</svg>
