<?xml version="1.0" encoding="UTF-8" standalone="no"?>
<svg
   xmlns:dc="http://purl.org/dc/elements/1.1/"
   xmlns:cc="http://creativecommons.org/ns#"
   xmlns:rdf="http://www.w3.org/1999/02/22-rdf-syntax-ns#"
   xmlns:svg="http://www.w3.org/2000/svg"
   xmlns="http://www.w3.org/2000/svg"
   xmlns:sodipodi="http://sodipodi.sourceforge.net/DTD/sodipodi-0.dtd"
   xmlns:inkscape="http://www.inkscape.org/namespaces/inkscape"
   width="16"
   height="16"
   version="1.1"
   id="svg4"
   sodipodi:docname="system-users-symbolic.svg"
   inkscape:export-filename="/home/joan/Plantillas/practica/Consejo Comunal/Nav_bar/Iconos_nav-bar/login.svg.png"
   inkscape:export-xdpi="96"
   inkscape:export-ydpi="96"
   inkscape:version="0.92.3 (2405546, 2018-03-11)">
  <metadata
     id="metadata10">
    <rdf:RDF>
      <cc:Work
         rdf:about="">
        <dc:format>image/svg+xml</dc:format>
        <dc:type
           rdf:resource="http://purl.org/dc/dcmitype/StillImage" />
      </cc:Work>
    </rdf:RDF>
  </metadata>
  <defs
     id="defs8" />
  <sodipodi:namedview
     pagecolor="#ffffff"
     bordercolor="#666666"
     borderopacity="1"
     objecttolerance="10"
     gridtolerance="10"
     guidetolerance="10"
     inkscape:pageopacity="0"
     inkscape:pageshadow="2"
     inkscape:window-width="1024"
     inkscape:window-height="574"
     id="namedview6"
     showgrid="false"
     inkscape:snap-bbox="true"
     inkscape:bbox-paths="true"
     inkscape:zoom="51.875"
     inkscape:cx="8"
     inkscape:cy="11.169297"
     inkscape:window-x="0"
     inkscape:window-y="0"
     inkscape:window-maximized="1"
     inkscape:current-layer="svg4" />
  <path
     class="ColorScheme-Text"
     d="m8 4e-6a8 8 0 0 0-8 8 8 8 0 0 0 6.6621 7.8848 8 8 0 0 0 0.79297 0.0957 8 8 0 0 0 0.54492 0.01953 8 8 0 0 0 1.5898-0.16016 8 8 0 0 0 0.77344-0.19727 8 8 0 0 0 2.8574-1.584 8 8 0 0 0 0.33789-0.30664 6 6 0 0 0-0.0039-0.0078 8 8 0 0 0 2.4453-5.7441 8 8 0 0 0-8-8zm0 1a7 7 0 0 1 7 7 7 7 0 0 1-1.9277 4.8105 6 6 0 0 0-5.0723-2.8105 6 6 0 0 0-5.0762 2.8145 7 7 0 0 1-1.9238-4.8145 7 7 0 0 1 7-7zm0 3a2 2 0 0 0-2 2 2 2 0 0 0 2 2 2 2 0 0 0 2-2 2 2 0 0 0-2-2z"
     id="path2"
     style="fill:#000000"
     fill="currentColor"
     color="#363636" />
  <path
     style="opacity:0.91000001;fill:#ffffff;fill-opacity:1;stroke:#05030d;stroke-width:0;stroke-miterlimit:4;stroke-dasharray:none;stroke-dashoffset:0;stroke-opacity:1;paint-order:markers fill stroke"
     d="M 2.6189824,12.428153 C 1.618182,11.187136 1.1059345,9.8377226 1.0456009,8.2833976 1.0152624,7.5018117 1.0679045,6.9769427 1.2482546,6.2628351 1.5560166,5.0442325 2.1430661,4.0187914 3.0647929,3.0897582 5.0664101,1.0722746 8.0056405,0.47890035 10.658815,1.5566709 c 2.09521,0.8511143 3.699088,2.7790814 4.163999,5.0053999 0.436234,2.0889927 -0.108087,4.2551932 -1.487158,5.9183512 l -0.254051,0.306386 -0.06971,-0.105958 C 12.140605,11.356458 10.72017,10.40802 9.1286641,10.087981 8.5850408,9.9786636 7.3813586,9.979231 6.8654889,10.089081 5.3580968,10.409972 4.0855216,11.208164 3.2066592,12.383992 3.04769,12.596677 2.9125761,12.770691 2.9064058,12.770691 c -0.00617,0 -0.1355121,-0.154127 -0.2874264,-0.342505 z M 8.877185,7.8054911 C 9.29654,7.6063402 9.6147208,7.2850746 9.8193434,6.8541982 10.195706,6.0616853 9.9897698,5.0533754 9.3364562,4.4898787 8.0763565,3.4030157 6.1327091,4.1862901 5.9943429,5.8367237 5.8649579,7.3800276 7.4679345,8.4747416 8.877185,7.8054911 Z"
     id="path866"
     inkscape:connector-curvature="0" />
  <path
     style="opacity:0.91000001;fill:#ffffff;fill-opacity:1;stroke:#05030d;stroke-width:0;stroke-miterlimit:4;stroke-dasharray:none;stroke-dashoffset:0;stroke-opacity:1;paint-order:markers fill stroke"
     d="M 7.3639977,15.952544 C 4.1369674,15.674067 1.4114794,13.513811 0.41228357,10.442529 -0.88090963,6.4675712 1.1662469,2.1307845 5.0638143,0.58852108 6.1519102,0.15796254 6.9713745,0.02139727 8.2576083,0.05626915 c 0.9662614,0.02619692 1.4480093,0.10658121 2.2765857,0.37987051 0.580072,0.19132493 1.574512,0.69634024 2.074779,1.05365294 0.472644,0.3375835 1.205293,1.0227026 1.563807,1.4623565 1.964894,2.409592 2.353131,5.7234143 0.997565,8.5147809 -0.420897,0.866707 -0.978229,1.62479 -1.707522,2.322572 -1.605711,1.536329 -3.9062507,2.352251 -6.0988253,2.163042 z M 3.1752783,12.494779 c 0.8648239,-1.2377 2.3487666,-2.139721 3.9548531,-2.403975 0.546682,-0.08995 1.5827759,-0.05756 2.1218458,0.06633 1.3836018,0.317981 2.5989878,1.080558 3.4266138,2.149979 0.14498,0.187336 0.295378,0.38162 0.334217,0.431743 0.06974,0.09 0.07275,0.08879 0.243068,-0.09824 0.468197,-0.514126 1.005578,-1.39888 1.289991,-2.123866 0.16788,-0.427933 0.345245,-1.1172097 0.407402,-1.5832448 C 15.016109,8.462341 15.015009,7.4471867 14.951169,7.02287 14.719686,5.4834823 14.023566,4.0983437 12.942435,3.025843 12.388451,2.4762815 11.817428,2.0667815 11.13023,1.7262488 9.1319171,0.73601007 6.8344083,0.73610783 4.8637358,1.7265154 2.9243268,2.7012109 1.5692208,4.4679453 1.1214431,6.6055711 0.99975332,7.1865004 0.95640644,8.2329968 1.0297636,8.8189324 c 0.1517798,1.2123316 0.6186455,2.3924126 1.3166963,3.3281696 0.2709395,0.363202 0.5370375,0.668763 0.5798445,0.665836 0.015402,-0.0011 0.12744,-0.144225 0.2489739,-0.318159 z"
     id="path868"
     inkscape:connector-curvature="0" />
  <path
     style="opacity:0.91000001;fill:#000000;fill-opacity:1;stroke:#05030d;stroke-width:0;stroke-miterlimit:4;stroke-dasharray:none;stroke-dashoffset:0;stroke-opacity:1;paint-order:markers fill stroke"
     d="M 7.6830841,7.9472731 C 7.0743153,7.8619171 6.5016979,7.4247896 6.2190783,6.829673 5.51306,5.3429991 6.8876039,3.6739636 8.4770341,4.0879576 9.1522042,4.2638171 9.6473037,4.7282019 9.8735115,5.3978014 9.9507627,5.6264732 9.9649172,5.7540798 9.9511064,6.0973381 9.9366865,6.4557329 9.9137088,6.5608996 9.794115,6.8158703 9.4148108,7.624537 8.5784053,8.0728068 7.6830841,7.9472731 Z"
     id="path870"
     inkscape:connector-curvature="0" />
  <path
     style="opacity:0.91000001;fill:#f9f9f9;fill-opacity:1;stroke:#05030d;stroke-width:0;stroke-miterlimit:4;stroke-dasharray:none;stroke-dashoffset:0;stroke-opacity:1;paint-order:markers fill stroke"
     d="M 7.6830841,7.9489651 C 7.0656398,7.8584529 6.5025084,7.4250474 6.212086,6.8168339 6.0540963,6.4859658 6.0479881,6.455475 6.0502436,6.0089497 6.0521452,5.6324864 6.0718029,5.4961716 6.1544046,5.2866547 6.3441244,4.8054361 6.8253259,4.3306227 7.3073787,4.1489867 8.3692252,3.7488863 9.5749305,4.3565744 9.8935014,5.4524195 10.013821,5.8663035 9.9722757,6.4348618 9.7938729,6.8158703 9.4159072,7.6230783 8.5673531,8.0785915 7.6830841,7.9489651 Z"
     id="path872"
     inkscape:connector-curvature="0" />
  <path
     style="opacity:0.91000001;fill:#4d4d4d;fill-opacity:1;stroke:#05030d;stroke-width:0;stroke-miterlimit:4;stroke-dasharray:none;stroke-dashoffset:0;stroke-opacity:1;paint-order:markers fill stroke"
     d="M 2.5884035,12.393195 C 1.4927684,11.015515 0.98239775,9.4710378 1.0436672,7.7185351 1.0788146,6.7132087 1.2864562,5.8636026 1.7143574,4.9742767 3.2227388,1.8393409 6.8610101,0.28389851 10.14508,1.3699543 c 1.128436,0.3731789 1.925705,0.8665487 2.77795,1.7190662 0.811845,0.8121041 1.344572,1.6637072 1.690784,2.7028391 0.745379,2.2372036 0.327339,4.6205784 -1.142911,6.5160894 -0.403897,0.520723 -0.363501,0.512674 -0.639082,0.127337 -0.297919,-0.416569 -1.026152,-1.119917 -1.459954,-1.410064 -0.670791,-0.448656 -1.4336555,-0.76587 -2.2524723,-0.93662 -0.5262978,-0.1097497 -1.7322092,-0.1091938 -2.2539028,10e-4 -1.6074625,0.339656 -2.8577672,1.170651 -3.8704065,2.572407 L 2.9032808,12.78913 Z M 8.821461,7.8329441 C 9.1576236,7.6750135 9.5571871,7.3225208 9.7253919,7.0355013 10.326209,6.010284 9.9288031,4.6894678 8.8687165,4.1882605 7.7184142,3.6443994 6.3695179,4.2730706 6.0493541,5.5022618 5.784943,6.5174037 6.37432,7.5815044 7.3853015,7.9142719 7.5801691,7.9784132 7.7412259,7.9949082 8.0808316,7.985505 8.4708072,7.9747075 8.5578949,7.9567686 8.821461,7.8329441 Z"
     id="path874"
     inkscape:connector-curvature="0" />
  <path
     style="opacity:0.91000001;fill:#4d4d4d;fill-opacity:1;stroke:#05030d;stroke-width:0;stroke-miterlimit:4;stroke-dasharray:none;stroke-dashoffset:0;stroke-opacity:1;paint-order:markers fill stroke"
     d=""
     id="path876"
     inkscape:connector-curvature="0" />
  <path
     style="opacity:0.91000001;fill:#4d4d4d;fill-opacity:1;stroke:#05030d;stroke-width:0;stroke-miterlimit:4;stroke-dasharray:none;stroke-dashoffset:0;stroke-opacity:1;paint-order:markers fill stroke"
     d="M 2.4817979,12.210779 C 1.8467344,11.359118 1.4128878,10.422381 1.1995983,9.4423248 1.0656455,8.8268176 1.0534057,7.2131787 1.1782486,6.6276682 1.8054301,3.6861997 4.1802388,1.4889225 7.152754,1.0997938 c 0.5477258,-0.071702 1.6932825,-0.02732 2.222163,0.086093 0.904449,0.1939502 1.885037,0.6159579 2.595002,1.1167902 0.491374,0.3466309 1.370869,1.2216485 1.71769,1.7089447 1.289938,1.8124114 1.615991,4.2778598 0.839739,6.3496673 -0.27799,0.74195 -0.831368,1.689065 -1.258648,2.154196 l -0.173511,0.188882 -0.164888,-0.198874 C 12.603986,12.111919 11.6551,11.191854 11.395395,11.017207 11.05415,10.787728 10.857023,10.687292 10.717889,10.672019 c -0.06135,-0.0067 -0.135348,-0.0448 -0.164443,-0.08459 -0.06422,-0.08783 -0.5819562,-0.30453 -0.6407539,-0.268191 -0.023098,0.01427 -0.041996,0.0071 -0.041996,-0.01601 0,-0.05944 -0.6832742,-0.238866 -0.9650876,-0.253425 -0.129736,-0.0067 -0.247403,-0.02371 -0.2614819,-0.03778 C 8.6300476,9.997944 8.3285037,9.987822 7.9740293,9.989531 c -0.4249199,0.00205 -0.6143848,0.016812 -0.5561099,0.043336 0.060401,0.02749 0.022412,0.03199 -0.1199721,0.01421 -0.3662376,-0.04574 -1.2855016,0.210643 -1.957154,0.545851 -0.4018861,0.200574 -1.0180167,0.608758 -1.1038422,0.731291 -0.037017,0.05285 -0.067303,0.07719 -0.067303,0.05408 0,-0.07146 -0.7426402,0.689481 -1.0030413,1.027754 C 3.0309496,12.582281 2.9077993,12.72634 2.8929386,12.726187 2.8780779,12.726054 2.6930646,12.4941 2.4817979,12.210779 Z M 8.8148434,7.8536477 c 0.1363319,-0.066836 0.3022112,-0.171876 0.3686214,-0.2334226 0.06641,-0.061546 0.1686551,-0.1432947 0.2272115,-0.1816623 0.058556,-0.038368 0.106466,-0.097303 0.106466,-0.1309677 0,-0.033665 0.020325,-0.061209 0.045167,-0.061209 0.065794,0 0.3139943,-0.4077765 0.288553,-0.4740744 -0.011873,-0.030941 -0.00431,-0.056256 0.016812,-0.056256 0.064416,0 0.1310909,-0.3992563 0.1309999,-0.7844466 -4.42e-5,-0.200531 -0.018294,-0.3646019 -0.040549,-0.3646019 -0.022254,0 -0.029343,-0.028975 -0.015754,-0.064389 C 9.9559621,5.4672047 9.896186,5.2908326 9.8095362,5.1106809 9.6295939,4.7365648 9.1767309,4.2661491 9.0451317,4.3166484 8.9957239,4.335608 8.9827702,4.3276711 9.0048399,4.2919612 9.0413138,4.2329454 8.8353879,4.1330743 8.4785792,4.0367316 8.217495,3.9662358 7.7051812,3.9558506 7.7051812,4.0210539 c 0,0.02597 -0.046773,0.033297 -0.1104855,0.017306 -0.070593,-0.017718 -0.1104854,-0.0091 -0.1104854,0.023863 0,0.028376 -0.021615,0.038235 -0.048033,0.021907 -0.06656,-0.041136 -0.3980384,0.1146162 -0.363357,0.1707314 0.016921,0.027378 4.42e-5,0.034754 -0.042316,0.018498 -0.1178449,-0.04522 -0.5236389,0.2930857 -0.7168015,0.5975905 -0.042402,0.066844 -0.061063,0.121534 -0.041468,0.121534 0.019595,0 -0.00104,0.026814 -0.045863,0.059587 -0.044819,0.032773 -0.067334,0.082491 -0.050033,0.1104854 0.017302,0.027994 0.011167,0.050899 -0.013633,0.050899 -0.076194,0 -0.1810971,0.441312 -0.1810971,0.7618492 0,0.3298477 0.073935,0.6965586 0.1404371,0.6965586 0.022856,0 0.029687,0.019205 0.015179,0.042678 -0.042806,0.069262 0.1462805,0.3949514 0.3677658,0.6334496 0.2209183,0.2378884 0.5704429,0.4849533 0.6321309,0.4468279 0.020751,-0.012825 0.037729,-0.00392 0.037729,0.019802 0,0.1010496 0.380499,0.1728165 0.8838834,0.1667115 0.4579308,-0.00555 0.5327666,-0.018191 0.7561095,-0.1276843 z"
     id="path878"
     inkscape:connector-curvature="0" />
  <path
     style="opacity:0.91000001;fill:#4d4d4d;fill-opacity:1;stroke:#05030d;stroke-width:0;stroke-miterlimit:4;stroke-dasharray:none;stroke-dashoffset:0;stroke-opacity:1;paint-order:markers fill stroke"
     d="M 2.6551737,12.431989 C 1.914723,11.510743 1.3915555,10.41008 1.1776527,9.3235128 1.1221283,9.0414642 1.1037116,8.7055982 1.1037414,7.9755905 1.1037866,6.8700586 1.1714388,6.4297627 1.4599493,5.6573113 2.3939717,3.1565804 4.5044701,1.4727481 7.1737674,1.0986192 c 0.5099712,-0.071478 1.6632809,-0.023158 2.2041336,0.092345 1.193524,0.2548855 2.30046,0.8057535 3.128677,1.5569901 1.312659,1.1906493 2.004492,2.3784131 2.322694,3.9876864 0.12885,0.6516422 0.136893,1.8292525 0.01677,2.45529 -0.223821,1.1664753 -0.879221,2.5503133 -1.569811,3.3145623 l -0.179705,0.198874 -0.165393,-0.198874 c -0.19345,-0.23261 -1.036111,-1.076383 -1.078746,-1.080169 -0.01603,-0.0014 -0.07257,-0.05779 -0.12564,-0.125263 -0.154368,-0.196248 -0.923116,-0.685044 -0.983083,-0.625078 -0.03213,0.03213 -0.254872,-0.07727 -0.232154,-0.114033 0.03095,-0.05008 -0.190551,-0.133002 -0.271891,-0.101789 -0.04681,0.01796 -0.06328,0.01098 -0.04477,-0.01898 0.03701,-0.05988 -0.2124244,-0.15058 -0.3105522,-0.112925 -0.044992,0.01727 -0.061337,0.01001 -0.043278,-0.01921 0.03758,-0.06081 -0.6182208,-0.241853 -0.9354116,-0.258239 -0.129736,-0.0067 -0.247403,-0.02371 -0.2614819,-0.03778 -0.04461,-0.04461 -1.2555313,-0.028852 -1.2278251,0.01598 0.015175,0.02455 -0.036044,0.03156 -0.1250969,0.01711 C 6.9727913,9.9934363 5.9874486,10.270193 5.3407929,10.592926 4.5867028,10.969278 3.8572257,11.566652 3.2546558,12.301278 3.0927465,12.49867 2.9462686,12.676814 2.9291493,12.697154 2.91203,12.717493 2.788741,12.598169 2.6551737,12.431989 Z M 8.8270878,7.8474119 C 8.9607915,7.7819966 9.1289163,7.6746958 9.2006987,7.6089649 9.2724807,7.543234 9.3680744,7.4664462 9.4131286,7.4383246 c 0.045054,-0.028122 0.077143,-0.072274 0.071308,-0.098117 -0.00583,-0.025843 0.028344,-0.067835 0.075953,-0.093314 0.126965,-0.06795 0.3182237,-0.414586 0.2815222,-0.5102292 -0.019607,-0.051095 -0.0136,-0.068899 0.01689,-0.050056 0.02922,0.018059 0.064953,-0.051013 0.093416,-0.1805756 0.056649,-0.2578567 0.061056,-0.8834367 0.00646,-0.9171776 -0.021959,-0.013573 -0.02922,-0.052581 -0.016134,-0.086684 C 9.9729062,5.4230489 9.7072267,4.8622338 9.6243074,4.8304147 9.5899526,4.8172315 9.5716355,4.7906026 9.5836028,4.7712392 9.6228273,4.7077722 9.1231185,4.286722 9.044414,4.3169237 8.995994,4.3355037 8.982881,4.3274917 9.004489,4.2925297 9.046939,4.2238447 8.6654123,4.0569027 8.4491313,4.0495261 8.3600143,4.0464861 8.2965544,4.0287041 8.3081086,4.0100091 8.3196626,3.9913141 8.1887308,3.9760181 8.0171487,3.9760181 c -0.1824039,0 -0.3119675,0.018704 -0.3119675,0.045036 0,0.02597 -0.046773,0.033297 -0.1104855,0.017306 -0.070593,-0.017718 -0.1104854,-0.0091 -0.1104854,0.023863 0,0.028376 -0.021615,0.038235 -0.048033,0.021907 -0.06656,-0.041136 -0.3980384,0.1146162 -0.363357,0.1707314 0.016921,0.027378 4.42e-5,0.034754 -0.042316,0.018498 C 6.9126594,4.228139 6.5068654,4.566445 6.3137028,4.8709498 c -0.042402,0.066844 -0.061063,0.121534 -0.041468,0.121534 0.019595,0 -0.00104,0.026814 -0.045863,0.059587 -0.044819,0.032773 -0.067334,0.082491 -0.050033,0.1104854 0.017302,0.027994 0.011167,0.050899 -0.013633,0.050899 -0.076194,0 -0.1810971,0.441312 -0.1810971,0.7618492 0,0.3298477 0.073935,0.6965586 0.1404371,0.6965586 0.022856,0 0.029687,0.019205 0.015179,0.042678 -0.04089,0.066162 0.1403063,0.3865456 0.3447075,0.6094964 0.2203685,0.2403668 0.5119515,0.4604856 0.5658573,0.4271703 0.02127,-0.013146 0.038673,-0.00167 0.038673,0.025509 0,0.027176 0.019887,0.03712 0.044194,0.022097 0.024307,-0.015022 0.044194,-0.00867 0.044194,0.014127 0,0.043595 0.1818961,0.1258239 0.3310218,0.1496437 0.048375,0.00773 0.3107408,0.011735 0.5830357,0.00891 0.4418785,-0.00459 0.5212057,-0.017924 0.7381792,-0.1240791 z"
     id="path880"
     inkscape:connector-curvature="0" />
  <path
     style="opacity:0.91000001;fill:#000000;fill-opacity:1;stroke:#05030d;stroke-width:0;stroke-miterlimit:4;stroke-dasharray:none;stroke-dashoffset:0;stroke-opacity:1;paint-order:markers fill stroke"
     d="M 2.6551153,12.431989 C 1.9110954,11.506526 1.3946519,10.422968 1.1792427,9.3354408 1.0685514,8.7765984 1.0688038,7.1569606 1.1796646,6.6276682 1.7924788,3.7018573 4.1780569,1.4941992 7.152754,1.1000609 7.7042584,1.0269883 8.7974101,1.0704456 9.3707893,1.1882371 10.292625,1.3776134 11.353404,1.8450295 12.0529,2.370069 c 0.477748,0.3585963 1.199308,1.0725883 1.535214,1.5191134 1.342937,1.7851861 1.721223,4.2092281 0.986347,6.3204726 -0.280549,0.805997 -0.827625,1.773229 -1.298549,2.295838 l -0.179206,0.198874 -0.20984,-0.242717 c -0.115412,-0.133495 -0.387511,-0.411918 -0.604665,-0.618719 -0.217154,-0.2068 -0.489041,-0.468648 -0.604192,-0.581883 -0.229465,-0.225647 -0.781774,-0.573732 -0.936305,-0.590094 -0.05369,-0.0057 -0.111751,-0.01287 -0.129034,-0.01598 -0.01728,-0.0031 -0.0708,-0.0479 -0.118917,-0.09955 -0.04812,-0.05165 -0.138027,-0.09391 -0.19979,-0.09391 -0.06176,0 -0.102739,-0.01546 -0.09106,-0.03436 0.02658,-0.04301 -0.2397008,-0.139126 -0.2934307,-0.105919 -0.021701,0.01341 -0.0721,-0.0083 -0.1119973,-0.04816 -0.039897,-0.0399 -0.1083968,-0.06316 -0.1522216,-0.0517 -0.043825,0.01146 -0.085606,0.0036 -0.092848,-0.01748 -0.017946,-0.05222 -0.6856704,-0.186849 -0.7906245,-0.159403 -0.046333,0.01212 -0.095379,0.004 -0.1089908,-0.01801 -0.035718,-0.057793 -1.2127756,-0.051823 -1.2127756,0.0062 0,0.0286 -0.057211,0.03546 -0.1501625,0.01803 -0.2419994,-0.0454 -1.3966336,0.233666 -1.3966336,0.337554 0,0.02496 -0.019688,0.03321 -0.04375,0.01834 -0.061609,-0.03808 -0.8085057,0.319289 -0.7762829,0.371426 0.014547,0.02354 -0.00878,0.0402 -0.051846,0.03703 -0.090476,-0.0067 -0.321363,0.133856 -0.321363,0.195585 0,0.02295 -0.020028,0.02934 -0.044506,0.01421 -0.024478,-0.01513 -0.056393,0.0035 -0.070922,0.04133 -0.014529,0.03786 -0.042859,0.05868 -0.062955,0.04626 -0.020097,-0.01242 -0.064543,0.0174 -0.09877,0.06626 -0.034227,0.04886 -0.073095,0.07798 -0.086374,0.0647 -0.013279,-0.01328 -0.066185,0.0293 -0.1175701,0.09463 -0.051385,0.06532 -0.093427,0.101855 -0.093427,0.08118 0,-0.06345 -0.4780567,0.423426 -0.8279977,0.843268 -0.1823388,0.218761 -0.3468042,0.414389 -0.3654786,0.434729 -0.018674,0.02034 -0.1432621,-0.09898 -0.2768615,-0.265165 z m 5.968735,-4.4998281 c 0.061281,-0.015381 0.089083,-0.045401 0.070257,-0.075862 -0.020738,-0.033554 -0.00593,-0.040728 0.044299,-0.021454 0.08253,0.03167 0.425182,-0.1601871 0.425182,-0.2380669 0,-0.025436 0.019887,-0.033957 0.044194,-0.018935 0.024307,0.015022 0.044194,0.00689 0.044194,-0.018078 0,-0.024965 0.05469,-0.075061 0.121534,-0.1113243 0.066844,-0.036263 0.1016466,-0.067264 0.07734,-0.068891 -0.024307,-0.00163 0.019485,-0.057114 0.097316,-0.1233035 0.07783,-0.06619 0.1474362,-0.1501042 0.1546796,-0.1864764 0.00724,-0.036372 0.040515,-0.087642 0.073936,-0.1139321 0.033422,-0.02629 0.060767,-0.10094 0.060767,-0.1658882 0,-0.064948 0.015274,-0.1180872 0.033942,-0.1180872 0.066079,0 0.096352,-0.1599564 0.1144567,-0.6047558 0.011412,-0.2803421 0.00119,-0.4606601 -0.02709,-0.4781411 C 9.9338827,5.5735297 9.923985,5.5438516 9.9368632,5.523014 9.9754009,5.4606587 9.7879783,5.0115096 9.670546,4.884798 9.6104808,4.8199865 9.5613365,4.7497864 9.5613365,4.7287977 c 0,-0.063557 -0.4050366,-0.3992266 -0.4817271,-0.3992266 -0.039345,0 -0.094301,-0.036453 -0.1221249,-0.081006 -0.060208,-0.096409 -0.4979017,-0.2437276 -0.6036111,-0.2031632 -0.041901,0.016079 -0.074168,0.00718 -0.074168,-0.020461 0,-0.062197 -0.5142827,-0.066447 -0.5525275,-0.00457 -0.015077,0.024396 -0.075913,0.032184 -0.1351908,0.017306 -0.064271,-0.016131 -0.1077768,-0.00784 -0.1077768,0.020548 0,0.026179 -0.029831,0.036151 -0.066291,0.02216 -0.03646,-0.013991 -0.066291,-0.00405 -0.066291,0.022097 0,0.026145 -0.028294,0.036678 -0.062874,0.023408 -0.034581,-0.01327 -0.1041869,0.017185 -0.1546796,0.067678 -0.050493,0.050493 -0.1186525,0.091805 -0.1514658,0.091805 -0.1497745,0 -0.6610224,0.4863238 -0.6999902,0.6658648 -0.00756,0.034836 -0.027069,0.073471 -0.04335,0.085854 -0.016281,0.012383 -0.036169,0.051685 -0.044194,0.087336 -0.00803,0.035651 -0.037741,0.089864 -0.066034,0.1204724 -0.071912,0.077796 -0.1474313,0.4578453 -0.1474313,0.741948 0,0.2909563 0.079875,0.6850097 0.1388528,0.6850097 0.023727,0 0.030482,0.020482 0.01501,0.045515 -0.03208,0.051907 0.140731,0.3637693 0.3189157,0.5755302 0.1650971,0.1962062 0.5430717,0.4894058 0.5919607,0.4591907 0.022063,-0.013636 0.040115,-0.00256 0.040115,0.024618 0,0.027176 0.019887,0.03712 0.044194,0.022097 0.024307,-0.015022 0.044194,-0.00779 0.044194,0.016062 0,0.045888 0.212566,0.1245568 0.3977475,0.1472037 0.1689919,0.020666 0.9367654,-0.00118 1.0512517,-0.029918 z"
     id="path882"
     inkscape:connector-curvature="0" />
  <path
     style="opacity:0.91000001;fill:#ffffff;fill-opacity:1;stroke:#05030d;stroke-width:0;stroke-miterlimit:4;stroke-dasharray:none;stroke-dashoffset:0;stroke-opacity:1;paint-order:markers fill stroke"
     d="M 7.2632394,15.927236 C 7.2024724,15.916748 7.0035986,15.887086 6.8212977,15.86132 6.3789807,15.798807 5.5734522,15.584855 5.1519286,15.417929 4.6138893,15.204862 3.8318997,14.783182 3.3746792,14.459565 2.8331924,14.076304 1.9303309,13.173853 1.5523619,12.638076 0.84557253,11.63619 0.39133012,10.564599 0.16111753,9.3560295 0.03798291,8.7095974 0.05043289,7.2103865 0.18447211,6.5437015 0.79378412,3.5131023 2.9155174,1.2042168 5.89322,0.33140063 6.5884222,0.12762488 7.1326518,0.07384388 8.2355112,0.09993439 c 1.4386636,0.03403468 2.0953268,0.19606262 3.3396548,0.82404053 0.810661,0.40911828 1.245407,0.71598098 1.90166,1.34227248 0.750339,0.7160833 1.181748,1.2956291 1.629154,2.1885693 1.910365,3.8127408 0.43978,8.4650143 -3.324451,10.5170753 -0.775975,0.423021 -1.579262,0.704257 -2.5074547,0.877877 -0.33609,0.06287 -1.7744036,0.118277 -2.0108349,0.07747 z M 3.27549,12.405492 c 0.8174574,-1.073387 1.9015449,-1.780817 3.3469339,-2.184072 0.3244025,-0.09051 0.5325093,-0.115253 1.1285539,-0.134195 0.9077209,-0.02885 1.3626049,0.02738 2.0366889,0.251743 1.2150663,0.404428 2.0849873,1.013395 2.9192223,2.043533 0.192572,0.237793 0.368316,0.432352 0.390542,0.432352 0.05612,0 0.444878,-0.473839 0.700923,-0.854313 0.497671,-0.739521 0.774021,-1.351822 1.010655,-2.2392797 C 14.963543,9.1417046 14.968631,9.0972899 14.98691,8.1684821 15.00348,7.3262822 14.99451,7.1537539 14.9117,6.7208843 14.62953,5.2459992 13.911986,3.9290503 12.830056,2.9003141 11.872534,1.9898693 10.711314,1.3900944 9.3403656,1.0978756 8.7090421,0.96330844 7.4175359,0.95190935 6.7550064,1.0750568 3.9271197,1.6006891 1.738334,3.7311868 1.1112256,6.5685417 c -0.082294,0.3723377 -0.096479,0.5775807 -0.098778,1.4291459 -0.00237,0.8762281 0.00905,1.0460244 0.096094,1.4291459 0.2630331,1.1577575 0.7358106,2.1397555 1.4662466,3.0455145 0.1519143,0.188377 0.3015738,0.342505 0.3325765,0.342505 0.031003,0 0.1966592,-0.184213 0.3681253,-0.409361 z"
     id="path884"
     inkscape:connector-curvature="0" />
  <path
     style="opacity:0.91000001;fill:#ffffff;fill-opacity:1;stroke:#05030d;stroke-width:0;stroke-miterlimit:4;stroke-dasharray:none;stroke-dashoffset:0;stroke-opacity:1;paint-order:markers fill stroke"
     d="M 7.5284045,7.8933878 C 6.985435,7.7455738 6.5131594,7.3516846 6.2453326,6.8232753 6.0954162,6.5274973 6.0921175,6.5094036 6.0931869,5.9887325 6.094202,5.4944856 6.103289,5.4379969 6.2205787,5.1968078 6.4003441,4.8271467 6.8250681,4.4091345 7.2025369,4.2303673 7.4880693,4.0951406 7.5354945,4.0865032 7.9924433,4.0865032 c 0.4672024,0 0.4991396,0.00621 0.8200192,0.1594554 C 9.6086488,4.6262 10.035969,5.4194612 9.9128026,6.2885901 9.8530722,6.7100818 9.6834519,7.0422309 9.3656367,7.3600461 8.8703792,7.8553036 8.1532364,8.0634875 7.5284045,7.8933878 Z"
     id="path886"
     inkscape:connector-curvature="0" />
  <path
     style="opacity:0.91000001;fill:#ffffff;fill-opacity:1;stroke:#05030d;stroke-width:0;stroke-miterlimit:4;stroke-dasharray:none;stroke-dashoffset:0;stroke-opacity:1;paint-order:markers fill stroke"
     d="M 7.5284045,7.8826435 C 7.0152879,7.7453588 6.5040369,7.314081 6.2441785,6.7993044 6.1212099,6.5557049 6.1141909,6.5122837 6.1141909,5.9951717 c 0,-0.5202696 0.00646,-0.5595641 0.1340474,-0.8148812 C 6.4143666,4.8478383 6.8886096,4.3877752 7.2332427,4.2247376 7.4542016,4.1202073 7.5297925,4.1086003 7.9895886,4.1086003 c 0.4784163,0 0.5290903,0.00862 0.7981029,0.1357195 0.418645,0.1978003 0.7382662,0.5095409 0.9389674,0.9158161 C 9.8898084,5.490396 9.8927862,5.5056053 9.8924296,6.00681 9.8920856,6.4902007 9.8846393,6.5323695 9.7515806,6.8044449 9.4847025,7.3501509 8.9303213,7.7800442 8.3327728,7.9046551 8.0285692,7.9680928 7.8271831,7.9625819 7.5284045,7.8826435 Z"
     id="path888"
     inkscape:connector-curvature="0" />
</svg>
